/* XPM */
static char *db5c501e2d6d4463f54b1355a12721cbv9BeyYToXrh6NZol[] = {
/* columns rows colors chars-per-pixel */
"64 64 7 1 ",
"  c #302418",
". c #472C1E",
"X c #543824",
"o c #67442E",
"O c #705336",
"+ c gray40",
"@ c #A5825D",
/* pixels */
"                                                                ",
"@@@@ @@@@ @@@@@@@@@@ @@@@ @@@@@@@@ @@@@ @@@@@@@@@@ @@@@ @@@@@@@@",
"OOOO OOOO OOOOOOOOOO OOOO OOOOOOOO OOOO OOOOOOOOOO OOOO OOOOOOOO",
"OOOO OOOO OOOOOOOOOO OOOO OOOOOOOO OOOO OOOOOOOOOO OOOO OOOOOOOO",
"                                                                ",
"@@@ @@@@@@ @@@@@@@@ @@@@@@ @@@@@@ @@@@@@ @@@@@@@@ @@@@@@ @@@@@@ ",
"OOO OOOOOO OOOOOOOO OOOOOO OOOOOO OOOOOO OOOOOOOO OOOOOO OOOOOO ",
"OOO OOOOOO OOOOOOOO OOOOOO O        OOOO OOOOOOOO OOOOOO OOOOOO ",
"                            @@ @@@@@                            ",
"@@@@@@ @@@@@@ @@@@@@@@  @@ OOO OOOO @@@@  @ @@@@@@@@ @@@@@@@@@@@",
"OOOOOO OOOOOO OOOOOO  @@OOO OO OOOO OOOO @  OOOOOOOO OOOOOOOOOOO",
"OOOOOO OOOOOO OOOOO @@ OOOOO        OOO OO@@ OOOOOOO OOOOOOOOOOO",
"                   @OO OO   ........   OOOO @                   ",
"@@ @@@@@@ @@@@@@  @OOOO  ....XX.XXX....  OO O@@ @@@@@@@ @@@@@@ @",
"OO OOOOOO OOOOO @@ OO  ...X.XXX.XXX.XX...  OOOO@ OOOOOO OOOOOO O",
"OO OOOOOO OOOO @OO O ....XX.XXX.XXX.XXX.... OOO @ OOOOO OOOOOO O",
"              @OOOO ..X.XXX.XXX.XXX.XXX.XX.. O OO@              ",
"@@@@ @@@@ @@ @ OOO ..XX.XXX.XXX.XXX.XXX.XXX.. OOOO  @@@ @@@@@@@@",
"OOOO OOOO OO OO O ..XXX.XXX.XXX.XXX.XXX.XXX.X. OO @ OOO OOOOOOOO",
"OOOO OOOO O @OOO ...XXX.XXX.XXX.XXX.XXX.XXX.X..  OO@ OO OOOOOOOO",
"           @OOO ..X.XXX.XXX.XXX.XXX.XXX.XXX.XX.. OOO@           ",
"@@@ @@@@@@  OOO .XX.XXX.XXX.XXX.XXX.XXX.XXX.XXX. OOOO @@ @@@@@@ ",
"OOO OOOOOO @ O ..XX.XXX.XXX.XXX.XXX.XXX.XXX.XXX.. O   OO OOOOOO ",
"OOO OOOOO @OO ..XXX.XXX.XXX.XXX.XXX.XXX.XXX.XXX.X. @@@ O OOOOOO ",
"          OOO ..XXX.XXX.XXX.XXX.XXX.XXX.XXX.XXX.X. OOO          ",
"@@@@@@ @@ OOO X.XXX.XXX.XXX.XXX.XXX.XXX.XXX.XXX.XX OO  @@@@@@@@@",
"OOOOOO O @   .X.XXX.XXX.XXX.XXX.XXX.XXX.XXX.XXX.XX.  @@ OOOOOOOO",
"OOOOOO O O@@ XX.XXX.XXX.XXX.XXX.XXX.XXX.XXX.XXX.XXX @OO OOOOOOOO",
"         OOO XX.XXX.XXX.XXX.XXX.XXX.XXX.XXX.XXX.XXX OOO         ",
"@@ @@@@@ OOO XX.XXX.XXX.XXX.XXX.XXX.XXX.XXX.XXX.XXX OOO @@@@@@ @",
"OO OOOOO OOO........................................OOO OOOOOO O",
"OO OOOOO   .oooooooooooooooooooooooooooooooooooooooo.   OOOOOO O",
"         @@.XXXXX+XXXXXXX+XXXXXXX+XXXXXXX+XXXXXXX+XX.@@         ",
"@@@@ @@@ OO.XXXXXXXXXXXXXXXXXXXXXXXXXXXXXXXXXXXXXXXX.OO @@@@@@@@",
"OOOO OOO OOO........................................OOO OOOOOOOO",
"OOOO OOO OOO ...................................... OOO OOOOOOOO",
"         OOO XX.XXX.XXX.XXX.XXX.XXX.XXX.XXX.XXX.XXX OOO         ",
"@@@ @@@@     XX.XXX.XXX.XXX.XXX.XXX.XXX.XXX.XXX.XXX      @@@@@@ ",
"OOO OOOO @@@ XX.XXX.XXX.XXX.XXX.XXX.XXX.XXX.XXX.XXX @@@  OOOOOO ",
"OOO OOOO OOO XX.XXX.XXX.XXX.XXX.XXX.XXX.XXX.XXX.XXX OOO  OOOOOO ",
"         OOO XX.XXX.XXX.XXX.XXX.XXX.XXX.XXX.XXX.XXX             ",
"@@@@@@ @ OOO XX.XXX.XXX.XXX.XXX.XXX.XXX.XXX.XXX.X+X @@@ @@@@@@@@",
"OOOOOO O     XX.XXX.XXX.XXX.XXX.XXX.XXX.XXX.XXX.X+X OOO OOOOOOOO",
"OOOOOO O @@@ XX.XXX.XXX.XXX.XXX.XXX.XXX.XXX.XXX.X+X OOO OOOOOOOO",
"         OOO XX.XXX.XXX.XXX.XXX.XXX.XXX.XXX.XXX.X+X OOO         ",
"@@ @@@@@ OOO XX.XXX.XXX.XXX.XXX.XXX.XXX.XXX.XXX.X+X     @@@@@@ @",
"OO OOOOO OOO XX.XXX.XXX.XXX.XXX.XXX.XXX.XXX.XXX.XXX @@@ OOOOOO O",
"OO OOOOO OOO XX.XXX.XXX.XXX.XXX.XXX.XXX.XXX.XXX.XXX OOO OOOOOO O",
"             XX.XXX.XXX.XXX.XXX.XXX.XXX.XXX.XXX.XXX OOO         ",
"@@@@ @@@ @@@ XX.XXX.XXX.XXX.XXX.XXX.XXX.XXX.XXX.XXX     @@@@@@@@",
"OOOO OOO OOO XX.XXX.XXX.XXX.XXX.XXX.XXX.XXX.XXX.XXX @@@ OOOOOOOO",
"OOOO OOO OOO XX.XXX.XXX.XXX.XXX.XXX.XXX.XXX.XXX.XXX OOO OOOOOOOO",
"            ........................................OOO         ",
"@@@ @@@@ @@.oooooooooooooooooooooooooooooooooooooooo.OO  @@@@@@ ",
"OOO OOOO OO.XXXXX+XXXXXXX+XXXXXXX+XXXXXXX+XXXXXXX+XX.OO  OOOOOO ",
"OOO OOOO OO.XXXXXXXXXXXXXXXXXXXXXXXXXXXXXXXXXXXXXXXX.    OOOOOO ",
"         OOO........................................@@@         ",
"@@@@@@ @ OOO ...................................... OOO @@@@@@@@",
"OOOOOO O     XX.XXX.XXX.XXX.XXX.XXX.XXX.XXX.XXX.XXX OOO OOOOOOOO",
"OOOOOO O @@@ XX.XXX.XXX.XXX.XXX.XXX.XXX.XXX.XXX.XXX     OOOOOOOO",
"         OOO XX.XXX.XXX.XXX.XXX.XXX.XXX.XXX.XXX.XXX @@@         ",
"@@ @@@@@ OOO XX.XXX.XXX.XXX.XXX.XXX.XXX.XXX.XXX.XXX OOO @@@@@@ @",
"OO OOOOO OOO XX.XXX.XXX.XXX.XXX.XXX.XXX.XXX.XXX.XXX OOO OOOOOO O",
"OO OOOOO OOO XX.XXX.XXX.XXX.XXX.XXX.XXX.XXX.XXX.XXX OOO OOOOOO O"
};
