/* XPM */
static char *Collect31702546141[] = {
/* columns rows colors chars-per-pixel */
"64 64 235 2 ",
"   c None",
".  c #010301",
"X  c #0C0102",
"o  c #000A01",
"O  c #02040A",
"+  c #0B020A",
"@  c #030A0B",
"#  c #0A0D0B",
"$  c #0B0C07",
"%  c #140000",
"&  c #1B0001",
"*  c #17050C",
"=  c #001301",
"-  c #001B05",
";  c #051709",
":  c #0E0D11",
">  c #140C12",
",  c #0A1813",
"<  c #1C160E",
"1  c #250000",
"2  c #2C0101",
"3  c #340000",
"4  c #3B0000",
"5  c #2D1710",
"6  c #02220B",
"7  c #04260B",
"8  c #0A2412",
"9  c #162E1A",
"0  c #083617",
"q  c #16351A",
"w  c #17210A",
"e  c #22391E",
"r  c #261B23",
"t  c #183925",
"y  c #0E2E21",
"u  c #252829",
"i  c #2E2C33",
"p  c #3A3638",
"a  c #333329",
"s  c #430000",
"d  c #4D0001",
"f  c #540001",
"g  c #5A0000",
"h  c #4F1B14",
"j  c #6B0101",
"k  c #620000",
"l  c #760102",
"z  c #681A18",
"x  c #721112",
"c  c #482219",
"v  c #77221F",
"b  c #42372E",
"n  c #7A3233",
"m  c #1B4626",
"M  c #0D4421",
"N  c #2E4B34",
"B  c #2C4B3C",
"V  c #304934",
"C  c #384539",
"Z  c #37543B",
"A  c #2C4C34",
"S  c #46473D",
"D  c #3E3F41",
"F  c #3C5D44",
"G  c #3A5743",
"H  c #344E43",
"J  c #386246",
"K  c #444543",
"L  c #484947",
"P  c #49574A",
"I  c #595B59",
"U  c #4E504C",
"Y  c #72554E",
"T  c #45664D",
"R  c #4D6452",
"E  c #586A5C",
"W  c #4E7B5B",
"Q  c #58735C",
"!  c #61705B",
"~  c #5C6E65",
"^  c #666865",
"/  c #686769",
"(  c #696B71",
")  c #777679",
"_  c #7A6466",
"`  c #8A0607",
"'  c #930000",
"]  c #881D1B",
"[  c #971816",
"{  c #9F140F",
"}  c #A40000",
"|  c #B70501",
" . c #A21414",
".. c #B8181A",
"X. c #AD1B0C",
"o. c #B2231C",
"O. c #AA1524",
"+. c #872121",
"@. c #8E3C30",
"#. c #B82226",
"$. c #B22732",
"%. c #B33634",
"&. c #AA2230",
"*. c #DC0C06",
"=. c #DA0B08",
"-. c #C9120C",
";. c #D8120A",
":. c #DC0C14",
">. c #D60B15",
",. c #CC1215",
"<. c #CD131B",
"1. c #C81917",
"2. c #D51415",
"3. c #D61416",
"4. c #C10100",
"5. c #E30301",
"6. c #ED0404",
"7. c #E50A02",
"8. c #E20B0C",
"9. c #EB0C0B",
"0. c #EA0707",
"q. c #F40201",
"w. c #F30B04",
"e. c #F30B0B",
"r. c #F70507",
"t. c #E3110D",
"y. c #EC1108",
"u. c #E40D14",
"i. c #EA0C15",
"p. c #F60913",
"a. c #E31213",
"s. c #E91619",
"d. c #F11014",
"f. c #C7221D",
"g. c #DD2118",
"h. c #C71A23",
"j. c #D21B20",
"k. c #C42829",
"l. c #D82E2A",
"z. c #C6322C",
"x. c #C83736",
"c. c #D33732",
"v. c #CA2E37",
"b. c #E1272D",
"n. c #A73C44",
"m. c #C83842",
"M. c #895453",
"N. c #BF5D54",
"B. c #817274",
"V. c #AB7573",
"C. c #DA5A58",
"Z. c #D74F51",
"A. c #E45A5C",
"S. c #FC454E",
"D. c #D97774",
"F. c #D5666A",
"G. c #FD716D",
"H. c #EA7976",
"J. c #FF7876",
"K. c #D15C65",
"L. c #49805C",
"P. c #5E876A",
"I. c #708976",
"U. c #BB817F",
"Y. c #CF817D",
"T. c #FF807A",
"R. c #7B9883",
"E. c #888987",
"W. c #89948A",
"Q. c #989798",
"!. c #A5A19E",
"~. c #AA9FAA",
"^. c #ACAAAD",
"/. c #A5A5A5",
"(. c #B6B3B9",
"). c #AFB2A8",
"_. c #A99692",
"`. c #D7908D",
"'. c #FE878B",
"]. c #FC948B",
"[. c #FF9D9D",
"{. c #FF9598",
"}. c #EB9594",
"|. c #DEA39D",
" X c #FCA59B",
".X c #FF9BA3",
"XX c #F89EAA",
"oX c #EC9DA2",
"OX c #D3ACAA",
"+X c #FFA9A6",
"@X c #FFBBB8",
"#X c #EBA9AD",
"$X c #AEC4B5",
"%X c #D3C6BD",
"&X c #BBBCC0",
"*X c #C6BBC4",
"=X c #BDC4C3",
"-X c #C8C8C8",
";X c #D5CBC8",
":X c #D4D5D8",
">X c #CFD3D2",
",X c #FFCBC5",
"<X c #FFC9C8",
"1X c #FFCDD2",
"2X c #FFD2D3",
"3X c #FFD9D8",
"4X c #FFD0C9",
"5X c #D4EBD9",
"6X c #FFE3DC",
"7X c #FFE0D6",
"8X c #FFDCE4",
"9X c #E1DFE2",
"0X c #DDE6E5",
"qX c #E7EAE7",
"wX c #FFE4E4",
"eX c #FFE9E3",
"rX c #FFEDEB",
"tX c #F6E9E9",
"yX c #EEF9EE",
"uX c #FFF3EB",
"iX c #FEF9ED",
"pX c #F8F5ED",
"aX c #EAECF1",
"sX c #FEEEF2",
"dX c #F1ECF2",
"fX c #EEF5F5",
"gX c #F5F5F5",
"hX c #FEF4F4",
"jX c #F4FCF5",
"kX c #FDFCF5",
"lX c #F4F6FB",
"zX c #FEF5FC",
"xX c #F5FDFC",
"cX c #FDFDFD",
"vX c #D2D6E1",
/* pixels */
"                                                                                                                                ",
"                                                                                                                                ",
"                                                                                                                                ",
"                                                                                                                                ",
"                                                                                                                                ",
"                                                                                                                                ",
"                                                            P P F J F F F F J                                                   ",
"                                                  q = o o o o . o @ o o o o o o = Z                                             ",
"                                                  e o . . . O . o . . . o . . o o Z                                             ",
"                                                  e . . . . O O . . . . o X . o . Z                                             ",
"                                              T R U b U L D H U K L K K K L L S S E Q P J                                       ",
"                                          0 = o . /.cXcXzXcXcXdXcXcXcXgXgXcXxXjXxXI.o = - M                                     ",
"                                          0 o . $ ).kXcXxXxXcXcXcXcXcXcXcXcXcXcXcXI.o o o m                                     ",
"                                          w % * & ).kXcXxXcXzXzXcXcXcXcXcXcXcXcXzXE.o o @ m                                     ",
"                                          h d g f #XiXpXjXxXcXcXcXcXcXcXcXcXcXcXzX^.p p p Z E T                                 ",
"                                  0 o . 2 z $.O.&.+XiXkXxXxXxXcXcXcXcXcXcXcXcXcXzXsXdXkXxXW.o o - m                             ",
"                                  0 o % 2 ] <.>.h.+XuXcXxXfXcXcXxXcXcXcXcXcXzXcXcXcXxXkXkXE.. o o m                             ",
"                                  7 % 3 s  .u.p.;. X6XrXzXcXcXjXxXcXkXkXkXcXcXcXcXxXjXkXcXE.. X o q                             ",
"                                  5 g j l | =.6.;.T.@X,X<X8XzXxXxXgXkXkXkXjXcXcXjXxXkXxXpX/.i i p p E W                         ",
"                          7 - o 1 v k.<.,.;.w.r.y.y.1.#.$.XXhXcXcXcXcXcXcXxXxXjXkXxXcXkXcXxXaXcXhXQ.= o = t                     ",
"                          6 o X 2 [ >.8.e.0.q.q.q.q.0.s.1..XrXcXcXcXcXcXzXcXcXxXcXkXcXcXcXzXcXgXkX!.. # o 9                     ",
"                          6 o % 3 [ <.a.t.t.8.d.e.p.6.0.3.{.wXhXzXcXcXcXcXcXcXcXkXcXzXcXcXhXkXhXkX_.X . . t                     ",
"                          8 . % 1 @.x.x.x.x.x.v.l.s.p.6.u.J.@X<X,X6XkXgXcXzXcXxXxXcXcXzXhXwX,X,X,XV.* O O t                     ",
"                          8 . % & OX4X3X3X3X8X1X1XS.p.r.e.s.b.z.%. XiXcXcXzXxXcXxXlXcXzXkXoX%.x.%.v & O @ y                     ",
"                          8 @ . X %XkXhXcXcXzXhXwXA.i.r.q.r.9.:.-.].uXpXcXcXcXcXxXxXcXcXuX}.h.:.<.` & o @ t L.                  ",
"                          0 . X $ =XcXcXcXxXxXkXwXF.<.u.s.=.=.:.j.].uXcXkXzXhXhXkXkXhXsXrX'.>.e.d.' 3 % X a P.                  ",
"                        ~ i ; < r ;XcXcXcXzXcXkXuXY.$.v.c.z.c.z.%..XsXcXzX8X2XwX,X4X1X2X<XG.7.q.p.| k s 4 c ! W                 ",
"                  0 = - 8 ).qXqXqXtXcXcXcXzXpXkXiX3X1X1X2X,X,X,X1XsXsXzXzX|.%.k.c.z.c.l.l.3.w.r.q.7.-.X.[ z < - = t             ",
"                  6 o o # >XcXyXkXkXcXkXcXcXkXiXkXkXhXsXhXkXhXhXuXhXkXkXrXD.<.y.y.7.w.7.*.y.w.q.q.9.0.t.,.` & @ . t             ",
"                  7 o . * -XxXcXkXcXxXcXkXiXkXkXkXyXcXcXgXcXcXcXjXcXxXkXuXH.a.q.q.w.w.9.t.7.0.9.u.u.5.t.3.` 1 . . y             ",
"                  8 . * X *XaX0XgXaXcXxXxXxXtXpXaXjXcXcXcXdXdXqXfXaXqXwX3XD.:.p.9.*.-.....X...h.<.,.l.f.z.+.% o . 9             ",
"                  6 . X * r i u u vXcXfXxXI u r u (.cXzXcX) u u u i u u c +.>.p.i.} k f d f g d g M.<X@X1XV.X . . 9             ",
"                  - o . X . . o O =XcXxXxXK @ O . ^.cXcXhXI . . . . . X & x u.p.t.' 3 % & & & & & Y zXsXzX~.X X . 9             ",
"                  - o + + X % % * %XcXcXgXU . . O ^.hXzXcXE @ . . . . X 1 x ,.u.-.` & @ O O . . . ( cXcXxX(.. . . 9             ",
"                  , O O % 2 3 2 2 OXuXgXdXK : + : ^.dXlXzXI . : > + : + 1 z O.1.o.x & . # > > $ . ^ gXcXxX/.. X . 9             ",
"                  ; . % 2 z ] [ ] z c a p ^.:X-X-X^ r D p Q.vX-X-X;X;X;X;XM.s f d M.;X:X-X-X-X>X>XqXcXcXcX^.. . . 9             ",
"                  8 . % 4 [ <.<.o.g % . O *XlXcXjXI X . + ~.cXcXcXkXzXcXcXB.% & * ) zXcXcXcXcXkXkXjXkXcXcX/.. O o 9             ",
"                  - o % s  .:.i.,.j 1 % * OXzXzXhXL X X + ~.cXcXcXcXcXcXkX) O O O ) cXcXcXkXkXkXkXkXxXcXcX/.. . . 9             ",
"                  - o % 3  .8.r.:.' s 2 4 XXeX6X7XY . : O ^.kXcXpXcXzXzXcX) o , O E.cXcXcXcXcXxXkXkXcXcXcX^.. O . 9             ",
"                  - o % 3 { 8.q.9.4.[ ` [ m.Z.C.N.`.%X=X(.aXkXkXxXxXcXzXcX5X&X&X(.9XkXcXcXcXcXcXcXkXcXcXcX^.. . o 9             ",
"                  , o % s  .*.q.q.y.;.2.:.u.a.-... XiXjXcXcXcXxXxXxXcXcXjXxXcXcXcXhXkXjXcXcXcXcXcXcXcXxXcX^.@ . . 9             ",
"                  - o & 3 [ 2.9.w.5.i.*.p.e.5.a...+XiXxXlXxXcXcXjXcXzXzXkXkXuXkXrXhXkXkXcXzXzXzXzXcXxXcXcXQ.o o o q             ",
"                  7 o X 1 ] #.,.,.j.<.<.3.-.,.1.#..XhXxXcXcXcXhXcXsXsX8XwXrXeXrXeX6X6XuXsXsXcXcXcXcXcXxXcX/.o o o q             ",
"                    T P Y h g j j '..X.X+X X X X+X8XcXxXcXlXcXcXrX|.K.A.A.C.C.C.C.A.C.C.K.oXrXgXzX(.U H L I T J T               ",
"                          ; X 1 & #XsXhXuXiXuXuXrXsXcXxXcXcXcXkXuXD.h.u.i.=.;.;.;.*.=.2.1.H.uXcXcXQ.o @ o u P.                  ",
"                          7 o . , -XzXcXjXjXxXkXcXcXcXxXcXxXxXkXrXD.<.e.6.e.9.*.7.w.r.e.>.G.pXzXcX!.o o o q L.                  ",
"                          - o o . =XcXcXxXcXcXxXzXcXcXcXkXxXxXkXsXD.o.;.3.;.,.3.>.d.p.0.:.J.sXzXjXQ.o o = q                     ",
"                            G G T R R I I :XcXcXcXcXcXcXcXcXkXcXhX,X X].{.{.{..X{.S.i.r.s.#.M.I I P F Z Z                       ",
"                                P.8 o . . (.cXcXcXcXcXcXcXcXcXcXcXcXiXuXhXsXsXsX6XJ.;.e.=.' 1 . o t                             ",
"                                  0 o o + (.cXcXcXcXcXcXcXcXcXcXcXcXkXcXcXcXcXcXuX].1.;.>.' 1 o o m                             ",
"                                  8 o @ . *XzXcXcXcXcXcXzXcXcXcXcXcXkXkXcXcXcXzXhX`.o.1.h.l & o o t                             ",
"                                  R.W.W.!.) ( ( / ^ ^ ^ / / / / ( ( ^ ^ ^ ^ / / _ n j l j z S G Z                               ",
"                                  5XjXjXcXp . . @ o . . . . . . O O O . . . . . @ % & & % a                                     ",
"                                  5XjXxXqXL @ . . . . . . . . . . . . . . . . . # . . o = t                                     ",
"                                  5XyXjXcXS o . o o . o . . o o o . . o o . . . o . o o o m                                     ",
"                                    $X).).Q N Z N N V V V V V N V V V V V V V V B B B B J                                       ",
"                                                                                                                                ",
"                                                                                                                                ",
"                                                                                                                                ",
"                                                                                                                                ",
"                                                                                                                                ",
"                                                                                                                                ",
"                                                                                                                                ",
"                                                                                                                                "
};
