/* XPM */
static char *Egg2_32[] = {
/* columns rows colors chars-per-pixel */
"32 32 164 2 ",
"   c #020402",
".  c #0B0302",
"X  c #000902",
"o  c #020408",
"O  c #0E0308",
"+  c #140201",
"@  c #190302",
"#  c #0B1A0E",
"$  c #0C1C13",
"%  c #171E17",
"&  c #350707",
"*  c #0D2412",
"=  c #0E2816",
"-  c #182014",
";  c #132718",
":  c #19261B",
">  c #172A1C",
",  c #19291B",
"<  c #1A341D",
"1  c #1D3423",
"2  c #1C3B24",
"3  c #262C23",
"4  c #273729",
"5  c #3E3130",
"6  c #490909",
"7  c #4C120F",
"8  c #431310",
"9  c #630C0B",
"0  c #6C0B0A",
"q  c #611512",
"w  c #5C231F",
"e  c #44373D",
"r  c #7F2221",
"t  c #683A37",
"y  c #7C3938",
"u  c #174024",
"i  c #2A412E",
"p  c #254B31",
"a  c #334732",
"s  c #423D42",
"d  c #454F48",
"f  c #505751",
"g  c #575759",
"h  c #58585A",
"j  c #7B4E4D",
"k  c #615C56",
"l  c #546459",
"z  c #6D5C61",
"x  c #606765",
"c  c #696664",
"v  c #6D6B6D",
"b  c #71696A",
"n  c #766262",
"m  c #797577",
"M  c #7A7A7B",
"N  c #820C0D",
"B  c #8A0B08",
"V  c #920D0E",
"C  c #97100E",
"Z  c #820E13",
"A  c #8A0D10",
"S  c #960F11",
"D  c #AE0D0E",
"F  c #B40A0A",
"G  c #B60607",
"H  c #9F1E21",
"J  c #C70608",
"K  c #DE0E0C",
"L  c #D5090A",
"P  c #DC110E",
"I  c #DC0E15",
"U  c #D81018",
"Y  c #DB1117",
"T  c #E30D06",
"R  c #EE0905",
"E  c #EC0708",
"W  c #E50C0B",
"Q  c #EB0A0B",
"!  c #E20706",
"~  c #F4060A",
"^  c #F0080E",
"/  c #F10704",
"(  c #E40D13",
")  c #E90B13",
"_  c #C22D30",
"`  c #DF2F32",
"'  c #EC2D25",
"]  c #F02A2C",
"[  c #A53C41",
"{  c #F13D44",
"}  c #BA5D61",
"|  c #837E7F",
" . c #AA6562",
".. c #B96664",
"X. c #E14444",
"o. c #E7575D",
"O. c #EC5659",
"+. c #E55E5A",
"@. c #E75955",
"#. c #DB605D",
"$. c #E0706F",
"%. c #E97776",
"&. c #E77572",
"*. c #7C837C",
"=. c #DE817D",
"-. c #E6817C",
";. c #DF7C83",
":. c #8C8887",
">. c #878A8A",
",. c #8A898A",
"<. c #868886",
"1. c #9C8F89",
"2. c #8C918C",
"3. c #8B8D91",
"4. c #928F94",
"5. c #919193",
"6. c #9C9C9B",
"7. c #959695",
"8. c #B28787",
"9. c #9EA29D",
"0. c #A1A09E",
"q. c #A09FA0",
"w. c #9DA3A1",
"e. c #A3A3A2",
"r. c #AAAEA9",
"t. c #B8A5A7",
"y. c #B6AEAF",
"u. c #B2B2AD",
"i. c #AEB1B2",
"p. c #B2B2B3",
"a. c #BDB8B8",
"s. c #B6B8BC",
"d. c #C28981",
"f. c #DD8585",
"g. c #E48887",
"h. c #E68384",
"j. c #ED9797",
"k. c #EDA29D",
"l. c #EA9BA2",
"z. c #EDA2A3",
"x. c #EDB4B5",
"c. c #F8B9B5",
"v. c #BDC1BE",
"b. c #CBCCCB",
"n. c #C3C3C0",
"m. c #D2CCC7",
"M. c #D0CFD0",
"N. c #CED5D3",
"B. c #D2D3D4",
"V. c #D9D7D9",
"C. c #D0DBD0",
"Z. c #F5C9C8",
"A. c #F3D2CB",
"S. c #F6DDDE",
"D. c #FADCDC",
"F. c #E8E5E7",
"G. c #FDF4ED",
"H. c #FDF5F4",
"J. c #FBFBF5",
"K. c #FDF7F9",
"L. c #F7FCFA",
"P. c #FCFCFC",
"I. c #F4FCF7",
"U. c None",
/* pixels */
"U.U.U.U.U.U.U.U.U.U.U.U.U.U.U.U.U.U.U.U.U.U.U.U.U.U.U.U.U.U.U.U.",
"U.U.U.U.U.U.U.U.U.U.U.U.U.U.U.U.U.U.U.U.U.U.U.U.U.U.U.U.U.U.U.U.",
"U.U.U.U.U.U.U.U.U.U.U.U.U.U.U.U.U.U.U.U.U.U.U.U.U.U.U.U.U.U.U.U.",
"U.U.U.U.U.U.U.U.U.U.U.U.U.U.U.4 1 1 1 ; U.U.U.U.U.U.U.U.U.U.U.U.",
"U.U.U.U.U.U.U.U.U.U.U.U.U.    o       X , U.U.U.U.U.U.U.U.U.U.U.",
"U.U.U.U.U.U.U.U.U.U.U.> f q.q.w.e.6.e.e.<.4 u U.U.U.U.U.U.U.U.U.",
"U.U.U.U.U.U.U.U.U.U.U.. k P.L.P.P.P.P.P.v.X = U.U.U.U.U.U.U.U.U.",
"U.U.U.U.U.U.U.U.U.U.7 Z } G.L.P.P.P.P.P.F.7.*.4 U.U.U.U.U.U.U.U.",
"U.U.U.U.U.U.U.U.U.@ 9 ( +.G.K.L.L.P.P.P.P.J.n.  = U.U.U.U.U.U.U.",
"U.U.U.U.U.U.U.U.8 S F E ' $.l.K.P.P.L.L.L.L.F.4.| i U.U.U.U.U.U.",
"U.U.U.U.U.U.U.. 9 I W R ~ E o.H.P.P.P.P.P.P.P.J.m.X * U.U.U.U.U.",
"U.U.U.U.U.U.U.. t h.g.g.O.~ ] %.k.J.P.P.P.P.D.-...O $ U.U.U.U.U.",
"U.U.U.U.U.U.U.  c P.P.J.z.) Q W @.H.J.J.P.J.c.Y F @ % U.U.U.U.U.",
"U.U.U.U.U.U.f *.y.P.P.J.A.;.h.-.z.H.S.f.-.-.+.~ ! B q a U.U.U.U.",
"U.U.U.U.U.X v L.J.P.J.J.J.J.J.K.K.J.x.W R R W E Q W D + $ U.U.U.",
"U.U.U.U.U.. e >.s.L.B.,.i.P.V.,.3.:. .) L B N A H &.... # U.U.U.",
"U.U.U.U.U.o .   c P.w.o g K.r.o   . 6 ( G + O . 5 K.B.. # U.U.U.",
"U.U.U.U.U.. & 9 y 1.>.v M 4.,.v b b [ 0 r b v v ,.J.M.  # U.U.U.",
"U.U.U.U.U.. 0 I V + z P.e.. g K.P.P.s.o d K.P.P.J.L.B.  # U.U.U.",
"U.U.U.U.U.. 0 E J 9 [ j.d.c 7.P.L.P.C.x ,.P.P.P.P.P.B.. # U.U.U.",
"U.U.U.U.U.. 0 W E K ) K #.H.L.P.L.P.J.J.H.J.P.K.P.P.b.X # U.U.U.",
"U.U.U.U.U.4 w V _ o.+.+.j.P.P.J.S.z.k.k.k.k.x.K.F.w.5.4 2 U.U.U.",
"U.U.U.U.U.U.U.. n K.G.H.J.P.P.P.x.U W K T Q X.H.B.X $ U.U.U.U.U.",
"U.U.U.U.U.U.U.1 l r.b.L.P.P.P.L.Z.+.O.@.{ ^ ` t.2.1 < U.U.U.U.U.",
"U.U.U.U.U.U.U.U.p X h P.P.P.P.P.P.H.K.K.c.P G + * U.U.U.U.U.U.U.",
"U.U.U.U.U.U.U.U.U.d M p.p.p.p.p.p.u.p.i.8.C N 3 1 U.U.U.U.U.U.U.",
"U.U.U.U.U.U.U.U.U.I.7.o X       o       . + - U.U.U.U.U.U.U.U.U.",
"U.U.U.U.U.U.U.U.U.C.7., , , : , , , , , > > 2 U.U.U.U.U.U.U.U.U.",
"U.U.U.U.U.U.U.U.U.U.U.U.U.U.U.U.U.U.U.U.U.U.U.U.U.U.U.U.U.U.U.U.",
"U.U.U.U.U.U.U.U.U.U.U.U.U.U.U.U.U.U.U.U.U.U.U.U.U.U.U.U.U.U.U.U.",
"U.U.U.U.U.U.U.U.U.U.U.U.U.U.U.U.U.U.U.U.U.U.U.U.U.U.U.U.U.U.U.U.",
"U.U.U.U.U.U.U.U.U.U.U.U.U.U.U.U.U.U.U.U.U.U.U.U.U.U.U.U.U.U.U.U."
};
