/* XPM */
static char *Collect41702546141[] = {
/* columns rows colors chars-per-pixel */
"64 64 237 2 ",
"   c None",
".  c #010301",
"X  c #0B0201",
"o  c #010A01",
"O  c #03030B",
"+  c #0C0D0C",
"@  c #060909",
"#  c #140202",
"$  c #1B0001",
"%  c #160F08",
"&  c #011301",
"*  c #011A04",
"=  c #031C0B",
"-  c #091A0B",
";  c #0C110C",
":  c #11100C",
">  c #18100E",
",  c #0B1C12",
"<  c #161916",
"1  c #240000",
"2  c #2B0000",
"3  c #2C0C00",
"4  c #340000",
"5  c #3B0000",
"6  c #3B0E08",
"7  c #27190B",
"8  c #231E1F",
"9  c #331D0F",
"0  c #02250A",
"q  c #012707",
"w  c #0B2D14",
"e  c #082510",
"r  c #152D1A",
"t  c #162817",
"y  c #0B3719",
"u  c #13331D",
"i  c #133B1C",
"p  c #18361A",
"a  c #03310F",
"s  c #352514",
"d  c #2E2B1F",
"f  c #1E1E21",
"g  c #211C20",
"h  c #133621",
"j  c #1A3421",
"k  c #143A23",
"l  c #1F3C26",
"z  c #1C2021",
"x  c #252826",
"c  c #243B27",
"v  c #303124",
"b  c #440000",
"n  c #4D0000",
"m  c #5B1C15",
"M  c #690B04",
"N  c #761613",
"B  c #740F0C",
"V  c #552519",
"C  c #423425",
"Z  c #1A4927",
"A  c #23432B",
"S  c #25482B",
"D  c #294835",
"F  c #245633",
"G  c #365638",
"H  c #26502B",
"J  c #2B613A",
"K  c #515F50",
"L  c #527355",
"P  c #596F61",
"I  c #6F7870",
"U  c #85070D",
"Y  c #920202",
"T  c #9C060A",
"R  c #8C1713",
"E  c #9A171B",
"W  c #8B140C",
"Q  c #A7120D",
"!  c #A61617",
"~  c #BA191A",
"^  c #B2060A",
"/  c #9C1420",
"(  c #B71E23",
")  c #8B2526",
"_  c #BD2329",
"`  c #C90C08",
"'  c #DC0D0C",
"]  c #D90908",
"[  c #D9110A",
"{  c #C90D16",
"}  c #D50D13",
"|  c #DC0E11",
" . c #D40A1B",
".. c #CC161B",
"X. c #C81718",
"o. c #D31414",
"O. c #DB1213",
"+. c #DA161B",
"@. c #CD120D",
"#. c #EC0303",
"$. c #E40A04",
"%. c #EC0902",
"&. c #EE030A",
"*. c #E50C0C",
"=. c #EB0B0C",
"-. c #E5050A",
";. c #F30302",
":. c #FB0303",
">. c #F20805",
",. c #FC0905",
"<. c #F6030A",
"1. c #FD030A",
"2. c #F6090A",
"3. c #FB090A",
"4. c #E4130C",
"5. c #EB0D13",
"6. c #E70A16",
"7. c #F60814",
"8. c #E31314",
"9. c #E31319",
"0. c #F71210",
"q. c #C9201B",
"w. c #F2221E",
"e. c #C81A21",
"r. c #D81724",
"t. c #E70E21",
"y. c #CF3337",
"u. c #F72627",
"i. c #F43B3A",
"p. c #E62F2B",
"a. c #EC483B",
"s. c #F5493F",
"d. c #E83D4D",
"f. c #8D565B",
"g. c #B35D5E",
"h. c #817C79",
"j. c #A67475",
"k. c #D64749",
"l. c #D44F53",
"z. c #E94844",
"x. c #FF4A4D",
"c. c #F75B5B",
"v. c #E15A5E",
"b. c #F06057",
"n. c #F95F61",
"m. c #D76768",
"M. c #D87977",
"N. c #D86B70",
"B. c #E6696C",
"V. c #FA6466",
"C. c #FF6E72",
"Z. c #E87879",
"A. c #FF7572",
"S. c #FE797C",
"D. c #FB7977",
"F. c #FF706D",
"G. c #5C9255",
"H. c #6A9F5D",
"J. c #528A66",
"K. c #79847B",
"L. c #648A6B",
"P. c #6EA969",
"I. c #7FAD75",
"U. c #75B06B",
"Y. c #FC7A81",
"T. c #868886",
"R. c #8F9591",
"E. c #9B959A",
"W. c #9B9C9E",
"Q. c #949596",
"!. c #909190",
"~. c #A98583",
"^. c #A29A9E",
"/. c #A08991",
"(. c #9CA19E",
"). c #9E9CA2",
"_. c #9B9FAA",
"`. c #A59CA1",
"'. c #9EA2A3",
"]. c #A7A6A6",
"[. c #B9B6B6",
"{. c #D28E90",
"}. c #EB878B",
"|. c #FB8689",
" X c #FF9C9E",
".X c #FD9896",
"XX c #E18F91",
"oX c #FFA79F",
"OX c #F49BA1",
"+X c #FFA3A3",
"@X c #FDABA3",
"#X c #FFABAC",
"$X c #F6A6A9",
"%X c #E8B8BA",
"&X c #FDB4B4",
"*X c #FBB6BA",
"=X c #FAACAB",
"-X c #D2A9AD",
";X c #C3C2BE",
":X c #FFC2BC",
">X c #FFBBC2",
",X c #BFC4C0",
"<X c #CBCCCC",
"1X c #C6C9C7",
"2X c #DAC7C5",
"3X c #CED2CE",
"4X c #CED8D2",
"5X c #D4D9D7",
"6X c #FBC6C7",
"7X c #FFD8D9",
"8X c #FFC9D0",
"9X c #DCE0DF",
"0X c #FFE4D9",
"qX c #FFF3DD",
"wX c #DDDEE0",
"eX c #FFDEE2",
"rX c #DAE2E1",
"tX c #E7E5E8",
"yX c #E8ECEC",
"uX c #E8E9E9",
"iX c #FFE4E5",
"pX c #FFEBE4",
"aX c #FFEDEC",
"sX c #FFE4EA",
"dX c #FFF3EC",
"fX c #FBFBED",
"gX c #FBF6E9",
"hX c #FFEDF2",
"jX c #EBF9F6",
"kX c #F5F5F6",
"lX c #FFF3F4",
"zX c #F5FDF5",
"xX c #FDFCF5",
"cX c #FEF6FB",
"vX c #F5FEFD",
"bX c #FDFDFD",
"nX c #F7F7FC",
/* pixels */
"                                                                                                                                ",
"                                                                                                                                ",
"                                                                                                                                ",
"                                                                                                                                ",
"                                                                                                                                ",
"                                                                                                                                ",
"                                                                                                                                ",
"                                                            L                                                                   ",
"                                              y * & & & & & & & * o & & & o * H                                                 ",
"                                              y o . . . . . o . . . . o . . o G                                                 ",
"                                              j . . . . . . . . . . . . . o . G                                                 ",
"                                            P c 8 t x 8 8 < f f f x f < x < < K P                                               ",
"                                      a * * & ].uXuXuXuXuXuXtXtXtXrXyXyXrXyXyXI - & & S                                         ",
"                                      w . o . [.bXbXbXbXbXbXbXbXbXbXvXbXbXvXbXT.o o o S                                         ",
"                                      w . X # [.bXbXvXvXbXbXbXbXbXxXbXxXbXbXbXI . . o A                                         ",
"                                      s 2 5 2 -XbXbXvXbXbXbXbXbXxXbXbXbXbXbXbX!.< < , D                                         ",
"                              y e : 3 N ~ ~ ! #XlXxXkXbXbXbXvXvXvXbXbXbXbXbXvXyX5XrX5XK., * , A                                 ",
"                              e . X 2 W O.7.{ #XgXxXbXbXbXvXvXvXvXbXbXbXbXbXbXnXvXvXbXT.. . o S                                 ",
"                              0 . $ 4 R | 5.X.+XqXfXbXbXcXbXxXzXbXbXbXbXbXbXbXbXvXnXbXT.. . . c                                 ",
"                              9 2 4 n Q 5.&.+..X0XqX7XlXcXbXxXbXxXbXxXbXbXcXcXbXbXbXbX!.: + , S J.                              ",
"                      i & % 9 N Q ` ` ] &.<.-.w.p.y.k.&XfXbXbXbXbXbXbXbXbXbXbXbXbXbXbXyX4X4X1XT.< - = A                         ",
"                      q . $ 4 / [ #.#.2.3.>.3.3.2.=.{  XpXvXcXbXbXbXvXvXbXbXbXbXbXbXnXbXvXbXxXR.. . . l                         ",
"                      * . # 4 / ' :.1.<.&.#.>.;.;.*...+XfXxXbXcXbXvXvXvXbXbXbXbXcXbXbXbXvXlXxXR.. . o l                         ",
"                      0 . # 2 ) q.9.+.r.r.r.8.$.>.=.+.|.0XpXiXdXcXbXvXvXbXxXbXxXbXxXbXlXsXdXpX~.X O . j                         ",
"                      0 o . 1 {.:X:X6X*X6X*X@Xa.] #.%.u.i.z.k.@XhXbXzXvXzXxXbXzXzXxXfX$Xl.d.k.) $ . . c                         ",
"                      0 . . > 2XxXxXcXcXlXaX0Xc.4.,.:.;.&.9.~ .XpXxXxXxXzXxXbXbXvXxXlX.Xr.6.o.Y 1 . . c                         ",
"                      0 o . + 1XxXbXbXbXcXcXiXl.] :.:.,.1.&.{ .XhXbXvXbXxXcXxXkXbXxXlX}. .t.6.Y 1 % @ r J.                      ",
"                      , . X O <XvXzXcXbXbXcXiXN.e.r.` o.r.e._  XhXbXcXdXiXaXaXdXpXaXiXY.t.7.-.^ b 2 1 s L.                      ",
"              l t t x ].,X[.<XyXvXvXbXbXxXxXxX6X>X>X&X*X*X>X*XiXbXbXfX$Xv.z.z.a.s.s.s.u.7.:.%.] ^ Q ! B 7 - w F                 ",
"              * . . > <XbXvXbXbXvXvXbXxXxXfXxXcXcXnXlXcXlXlXbXbXnXxXpXM...-.%.%.%.3.;.2.1.;.;.2.&.-. .T 2 X o u                 ",
"              * . . > 4XvXvXbXnXbXvXbXxXbXxXbXbXbXbXlXxXlXxXbXbXbXxXpXZ.+.<.2.;.;.:.#.;.1.,.,.;.>.=.} T 2 . o u                 ",
"              * o . : 3XvXjXbXbXbXbXbXbXxXxXbXbXvXbXcXxXxXxXxXlXaXiX0XC.6.:.:.:.1.:.<.=.' } @.o.@.X.~ R 2 . o r                 ",
"              - . . : 2XbXbXbXcXcXbXxXzXfXfXxXbXbXcXcXbXjXzXaXOXv.c.x.u.%.;.:.:.1.;.5.x. X@X#X#X#X@X&Xj.# X . r                 ",
"              = . O : 5XzXcXbXbXbXvXzXbXxXxXxXlXbXbXbXbXzXfXaXZ...-.&.;.;.:.:.:.;.2.6.C.pXfXcXlXlXfXlX].X . . j                 ",
"              = . @ + 5XxXxXbXvXvXbXbXkXjXvXbXbXvXbXbXbXbXfXaXm.[ >.;.:.,.:.:.:.3.5.} A.pXfXbXxXbXxXcX^.. . . r                 ",
"              = @ X 7 ;XdXdXaXaXaXcXhXcXbXbXvXbXvXbXvXvXxXfXaXM.X.O.8.O.[ ` @.O.` X.( Z.aXfXbXbXbXbXxX`.@ @ . r                 ",
"              = O X 2 g.B.c.n.n.V.V.N.8XlXvXbXbXbXbXvXbXxXxXlX6X$X X X X X X+X X+X+X$X8XxXbXbXcXvXbXbX].. . . r                 ",
"              = . # 5 E ..*.8.*.=.| ( #XlXvXbXbXbXbXzXxXxXbXbXcXlXlXhXdXlXlXlXhXlXaXxXxXvXvXbXbXvXvXvX'.. . . c                 ",
"              = X $ b E ' >.2.#.;.*.r.#XdXbXbXbXbXbXxXzXxXcXkXbXxXxXxXxXxXxXbXxXcXlXxXbXcXbXcXcXbXvXbX).. . . t                 ",
"              = . $ 5 ! =.:.:.:.,.-.+.#XpXlXhXcXxXxXxXxXbXbXbXbXxXxXxXbXvXbXvXbXbXcXbXbXbXbXbXbXbXvXbX].. . . r                 ",
"              * . $ 5 ! $.:.:.:.:.#.*.x.V.S.Z.8XxXxXvXbXcXcXbXvXbXbXbXvXvXvXvXbXbXbXcXvXbXvXbXbXbXbXvXW.+ . . t                 ",
"              * . $ b Q *.,.:.,.;.2.;.0.-.{ _ =XdXxXbXvXcXbXbXvXvXbXbXbXbXvXvXbXbXbXbXbXvXvXbXbXbXcXbX].. . . c                 ",
"              * . $ n ! $.,.:.:.1.1.:.:.:.8.X.@XgXxXbXvXbXbXvXvXbXbXbXcXcXbXbXbXbXcXbXbXjXvXnXcXbXxXbX].. . . p                 ",
"              q & X 2 R ~ } } ' ' ' ' ' O.o.~ +XgXxXvXvXbXbXbXlXcXhXhXhXhXhXhXaXaXaXlXxXkXjXbXbXxXxXbX).o . & p                 ",
"              F F c C V M M N m.|.|.|.}.}.}.XX7XxXbXvXbXvXlXlX%XD.D.A.A.A.A.A.A.S.S.Y.*XlXxXbX<Xh.T.h.P D D D G                 ",
"                      7 # $ 1 >XsXaXaXdXfXlXlXlXbXbXcXbXxXlXaXM.~ ' $.' [ [ [ [ | { ~ Z.gXbXnX!.. . . c                         ",
"                      & . # X 2XbXbXxXxXfXfXbXlXnXbXcXcXcXxXgXm.o.&.>.>.>.>.>.>.=.9...S.dXxXbXE.@ . . k                         ",
"                      0 o o ; 1XbXnXzXbXvXzXvXbXbXbXbXbXxXgXpXM.~ O.| ' [ ' *.-.&.=. .S.aXxXbXQ.. . & y                         ",
"                      H Z A l K.!.T.W.5XbXvXvXvXbXbXvXxXxXxXaX%X}.Z.Z.Z.Z.Z.C.z.4.#.r.y.~.R.K.I A Z Z F                         ",
"                              * . . . 1XbXbXbXvXvXxXbXxXxXxXbXhXhXdXqXgXhXhX7XS.] ;.9.Y 2 . o p                                 ",
"                              0 o o + [.bXbXbXbXbXzXxXbXbXkXbXbXkXxXfXfXlXhXhXY.8.1.6.T 2 X . A                                 ",
"                              0 o & . 1XbXbXbXcXbXbXxXbXbXbXbXnXbXcXbXvXvXbXhX}.e.}  .U 1 . o Z                                 ",
"                              H i k l K.(.E.E.^.^.`.^.E.E.^.).).^.E.).Q._._./.f.B U N m v k k                                   ",
"                                      0 o . . O . X O . . X . @ . X O O O O O $ 1 1 1 v                                         ",
"                                      y o o o . . . . . @ . . . . . . O O O . . X X & S                                         ",
"                                      a & o o . o . @ . . . . o o o o @ . . o . . . o Z                                         ",
"                                      H i a k h h h h h k p p i p y y i k u r j j w i                                           ",
"                                                                                                                                ",
"                                                                                                                                ",
"                                                                  I.                                                            ",
"                                                                  I.    P.                                                      ",
"                                                                    G.H.P.                                                      ",
"                                                                    G.U.                                                        ",
"                                                                                                                                "
};
