/* XPM */
static char *Egg2_32[] = {
/* columns rows colors chars-per-pixel */
"32 32 158 2 ",
"   c #020502",
".  c #0B0302",
"X  c #010C02",
"o  c #0A0905",
"O  c #0B0F0B",
"+  c #130101",
"@  c #1E0101",
"#  c #1A0D06",
"$  c #021003",
"%  c #0D150D",
"&  c #0B1A0E",
"*  c #1D170E",
"=  c #0F1410",
"-  c #0F1C11",
";  c #111212",
":  c #131F14",
">  c #2A0402",
",  c #0D210E",
"<  c #082210",
"1  c #102615",
"2  c #122A16",
"3  c #152B1B",
"4  c #113019",
"5  c #18331A",
"6  c #3F2618",
"7  c #283428",
"8  c #400603",
"9  c #500606",
"0  c #560E08",
"q  c #491913",
"w  c #5E1211",
"e  c #6C0B09",
"r  c #710B0B",
"t  c #620E12",
"y  c #6D1D1E",
"u  c #53393E",
"i  c #334937",
"p  c #334B39",
"a  c #424340",
"s  c #424B43",
"d  c #594745",
"f  c #524D4F",
"g  c #4E514F",
"h  c #4E4E54",
"j  c #524E51",
"k  c #4F515B",
"l  c #515154",
"z  c #595D58",
"x  c #735859",
"c  c #7A5959",
"v  c #6E6966",
"b  c #6A6A6A",
"n  c #636463",
"m  c #73716D",
"M  c #A30D12",
"N  c #B70812",
"B  c #AE1113",
"V  c #B22121",
"C  c #CC0A0A",
"Z  c #C4060B",
"A  c #DD0E0E",
"S  c #DC110F",
"D  c #DE0F14",
"F  c #C7181E",
"G  c #D31215",
"H  c #EE0707",
"J  c #E50907",
"K  c #EA0906",
"L  c #E50B09",
"P  c #EB090A",
"I  c #F40505",
"U  c #FA0404",
"Y  c #F00906",
"T  c #F40609",
"R  c #F80409",
"E  c #F40E0D",
"W  c #E30E14",
"Q  c #EA0B12",
"!  c #E60C1C",
"~  c #E11111",
"^  c #E61E1E",
"/  c #F41D1C",
"(  c #F61E20",
")  c #DF2D34",
"_  c #EB2921",
"`  c #EC2628",
"'  c #F42923",
"]  c #E23438",
"[  c #EF3739",
"{  c #EF383A",
"}  c #E43A3C",
"|  c #F4343A",
" . c #EC433E",
".. c #F0403D",
"X. c #EA3C41",
"o. c #9C4E4F",
"O. c #DD4648",
"+. c #E7454C",
"@. c #E84348",
"#. c #E34645",
"$. c #E85559",
"%. c #E1595D",
"&. c #E85A5B",
"*. c #E0605E",
"=. c #DB5E61",
"-. c #E36967",
";. c #E7696C",
":. c #EC6166",
">. c #E67074",
",. c #E37F84",
"<. c #8E908F",
"1. c #B5B9B5",
"2. c #B7BAB8",
"3. c #E88487",
"4. c #F98784",
"5. c #D2B0B1",
"6. c #EBAFAE",
"7. c #EBA1A3",
"8. c #F9ADAA",
"9. c #EAB0AB",
"0. c #F3B6AE",
"q. c #FAB7BA",
"w. c #F5BBBC",
"e. c #F6B7B8",
"r. c #BEC1BF",
"t. c #CDC0BB",
"y. c #F2C1BC",
"u. c #C7C7C7",
"i. c #D1CACC",
"p. c #CDCFD0",
"a. c #D0CFD1",
"s. c #CED1D1",
"d. c #D7D9D9",
"f. c #F0C4C4",
"g. c #FFC6C7",
"h. c #FEC9CA",
"j. c #FECBC5",
"k. c #FED1CC",
"l. c #FCD3D5",
"z. c #FED6D9",
"x. c #FDDBDB",
"c. c #E5ECEA",
"v. c #EBEDED",
"b. c #FBE4E6",
"n. c #FDECEC",
"m. c #FEF1E0",
"M. c #FDF3E9",
"N. c #FCF9EF",
"B. c #EEF1F1",
"V. c #F2F3F3",
"C. c #FEF3F3",
"Z. c #FCFBF5",
"A. c #F6F7F9",
"S. c #FDF6F9",
"D. c #F5FDFC",
"F. c #FCFCFC",
"G. c #F4FCF3",
"H. c None",
/* pixels */
"H.H.H.H.H.H.H.H.H.H.H.H.H.H.H.H.H.H.H.H.H.H.H.H.H.H.H.H.H.H.H.H.",
"H.H.H.H.H.H.H.H.H.H.H.H.H.H.H.H.H.H.H.H.H.H.H.H.H.H.H.H.H.H.H.H.",
"H.H.H.H.H.H.H.H.H.H.H.H.H.H.H.H.H.H.H.H.H.H.H.H.H.H.H.H.H.H.H.H.",
"H.H.H.H.H.H.H.H.H.H.H.H.H.H.H.H.H.H.H.H.H.H.H.H.H.H.H.H.H.H.H.H.",
"H.H.H.H.H.H.H.H.H.H.H.H.X X X X X X X 5 H.H.H.H.H.H.H.H.H.H.H.H.",
"H.H.H.H.H.H.H.H.H.H.H.p = ; O = ; % ; 7 H.H.H.H.H.H.H.H.H.H.H.H.",
"H.H.H.H.H.H.H.H.H.H.$ z V.V.V.V.B.V.B.2.$ 2 H.H.H.H.H.H.H.H.H.H.",
"H.H.H.H.H.H.H.H.H.H.@ x F.F.F.F.S.F.F.r.% 3 H.H.H.H.H.H.H.H.H.H.",
"H.H.H.H.H.H.H.H.% 0 G =.C.F.F.D.F.F.F.A.c.1.$ 3 H.H.H.H.H.H.H.H.",
"H.H.H.H.H.H.H.H.@ e L &.m.C.S.F.F.F.F.F.D.u.O 2 H.H.H.H.H.H.H.H.",
"H.H.H.H.H.H.o w C J T E ^ ;.Z.F.F.F.F.F.F.A.c.1.O 2 H.H.H.H.H.H.",
"H.H.H.H.H.H.. t ~ ! W P H $.M.C.F.D.F.F.F.F.A.5.  - H.H.H.H.H.H.",
"H.H.H.H.H.H.  c x.x.z.4.L E ` -.S.F.Z.F.F.j.) V + : H.H.H.H.H.H.",
"H.H.H.H.H.H.  b F.F.S.7.D L W &.S.Z.n.N.C.q.! Z > * H.H.H.H.H.H.",
"H.H.H.H.% b d.v.D.F.Z.M.x.z.z.b.F.y.) _ ' / T K C M # 4 H.H.H.H.",
"H.H.H.H.  m D.F.F.F.Z.F.F.S.Z.F.C.8.P I U H P L A B + - H.H.H.H.",
"H.H.H.H.  m F.F.F.Z.Z.Z.F.F.G.w.] / I U I | j.l.k.5.. & H.H.H.H.",
"H.H.H.H.  m Z.C.Z.S.D.F.F.F.Z.6.D L K L D O.M.F.F.i.  & H.H.H.H.",
"H.H.H.H.. y } { { 3.F.F.F.F.S.n.h.g.h.h.h.z.D.F.F.s.  & H.H.H.H.",
"H.H.H.H.+ r H U K :.C.S.F.Z.F.F.Z.Z.F.F.S.F.F.F.F.s.  % H.H.H.H.",
"H.H.H.H.. r Y U I / X.,.Z.F.S.D.F.F.F.F.F.F.D.F.F.p.  - H.H.H.H.",
"H.H.H.H.o e A K P K W *.N.D.F.F.S.S.S.S.C.F.A.F.Z.a.  , H.H.H.H.",
"H.H.H.H.H.6 8 o.q.w.w.l.F.F.Z.f.#... . .@.>.Z.d.a s H.H.H.H.H.H.",
"H.H.H.H.H.H.. v F.Z.G.F.F.F.Z.9.G L L H P +.C.u.  < H.H.H.H.H.H.",
"H.H.H.H.H.H.H.i s <.F.F.F.F.Z.b.e.0.e.4.K F d s H.H.H.H.H.H.H.H.",
"H.H.H.H.H.H.H.H.X n F.F.F.F.F.F.A.Z.S.q.D N + 1 H.H.H.H.H.H.H.H.",
"H.H.H.H.H.H.H.H.H.p g j l f f l f h k u 9 q H.H.H.H.H.H.H.H.H.H.",
"H.H.H.H.H.H.H.H.H.H.X                     2 H.H.H.H.H.H.H.H.H.H.",
"H.H.H.H.H.H.H.H.H.H.H.H.H.H.H.H.H.H.H.H.H.H.H.H.H.H.H.H.H.H.H.H.",
"H.H.H.H.H.H.H.H.H.H.H.H.H.H.H.H.H.H.H.H.H.H.H.H.H.H.H.H.H.H.H.H.",
"H.H.H.H.H.H.H.H.H.H.H.H.H.H.H.H.H.H.H.H.H.H.H.H.H.H.H.H.H.H.H.H.",
"H.H.H.H.H.H.H.H.H.H.H.H.H.H.H.H.H.H.H.H.H.H.H.H.H.H.H.H.H.H.H.H."
};
