/* XPM */
static char *Egg4_32[] = {
/* columns rows colors chars-per-pixel */
"32 32 185 2 ",
"   c #030503",
".  c #0C0302",
"X  c #020B03",
"o  c #0A0802",
"O  c #0A0D09",
"+  c #120302",
"@  c #1B0301",
"#  c #130B09",
"$  c #021105",
"%  c #051409",
"&  c #0A190D",
"*  c #14120F",
"=  c #0F1512",
"-  c #131313",
";  c #151917",
":  c #181815",
">  c #17181B",
",  c #1C1C1D",
"<  c #191414",
"1  c #270101",
"2  c #2A0101",
"3  c #380101",
"4  c #2C1916",
"5  c #0C210F",
"6  c #0D2512",
"7  c #132414",
"8  c #1A221B",
"9  c #142B19",
"0  c #182A1C",
"q  c #21211E",
"w  c #23291C",
"e  c #39251E",
"r  c #1D3423",
"t  c #272829",
"y  c #272627",
"u  c #213324",
"i  c #233928",
"p  c #2A372A",
"a  c #2D3232",
"s  c #2B3938",
"d  c #333333",
"f  c #3E3032",
"g  c #373A36",
"h  c #383836",
"j  c #373738",
"k  c #373A3A",
"l  c #393A3B",
"z  c #4A0A0B",
"x  c #580607",
"c  c #5E0C0B",
"v  c #560203",
"b  c #4D1715",
"n  c #4A1F19",
"m  c #5C1E1A",
"M  c #660808",
"N  c #7C0B0C",
"B  c #7C0D10",
"V  c #6A1613",
"C  c #572017",
"Z  c #4A2725",
"A  c #42312E",
"S  c #433C3E",
"D  c #2F4336",
"F  c #354138",
"G  c #39443F",
"H  c #403C41",
"J  c #494D46",
"K  c #414648",
"L  c #4C4A4A",
"P  c #494243",
"I  c #56534D",
"U  c #4E4E50",
"Y  c #504F52",
"T  c #4F5C52",
"R  c #535355",
"E  c #585553",
"W  c #525852",
"Q  c #545758",
"!  c #515858",
"~  c #5B595D",
"^  c #5D6B61",
"/  c #646764",
"(  c #77767A",
")  c #787878",
"_  c #787573",
"`  c #8A0605",
"'  c #970E0F",
"]  c #9C0C0C",
"[  c #8F1010",
"{  c #951011",
"}  c #A30A08",
"|  c #AE0C0F",
" . c #B20A0D",
".. c #BA0808",
"X. c #C8090D",
"o. c #D50609",
"O. c #C00B10",
"+. c #CA1019",
"@. c #D51012",
"#. c #DB1414",
"$. c #D8161B",
"%. c #ED0506",
"&. c #EF070C",
"*. c #E20D0E",
"=. c #ED090B",
"-. c #E50707",
";. c #F10805",
":. c #F10C0F",
">. c #F40706",
",. c #E40D14",
"<. c #EA0B10",
"1. c #E31112",
"2. c #F51516",
"3. c #D4252A",
"4. c #DF363B",
"5. c #F02C2E",
"6. c #EE2F32",
"7. c #EE3031",
"8. c #E33D39",
"9. c #AB4B4C",
"0. c #936763",
"q. c #AF7776",
"w. c #D94344",
"e. c #D95E63",
"r. c #DF7878",
"t. c #E56565",
"y. c #E86D6D",
"u. c #E76B70",
"i. c #E67C7C",
"p. c #E5827F",
"a. c #8A8788",
"s. c #86858A",
"d. c #929496",
"f. c #A7A9A8",
"g. c #A8A7A7",
"h. c #AEB3AE",
"j. c #AFAEB1",
"k. c #B9B3B4",
"l. c #BAB6BA",
"z. c #B6BABC",
"x. c #B8B7B9",
"c. c #DD8F8D",
"v. c #CA9291",
"b. c #EA8282",
"n. c #E88884",
"m. c #F98D89",
"M. c #E38E90",
"N. c #E29F99",
"B. c #E99F9A",
"V. c #C7A4A4",
"C. c #EEA8AB",
"Z. c #F9B5BB",
"A. c #C6C4BF",
"S. c #CACCCA",
"D. c #C9C4C4",
"F. c #D7CFD5",
"G. c #D6D3D4",
"H. c #D9DCDA",
"J. c #D7D6D5",
"K. c #FBC8C4",
"L. c #FDD1CD",
"P. c #FDD2D2",
"I. c #FFDCDA",
"U. c #F9D2D9",
"Y. c #FEE0DB",
"T. c #E2DFE0",
"R. c #FEDAE0",
"E. c #E8E9E7",
"W. c #E7E8E9",
"Q. c #E9E9E8",
"!. c #F7E7E9",
"~. c #FEE6E8",
"^. c #FEECEF",
"/. c #EEF0E9",
"(. c #FDF3EC",
"). c #F7EEF1",
"_. c #EFF2F1",
"`. c #F3F3F3",
"'. c #FCF5F3",
"]. c #F4FAF5",
"[. c #FCFAF4",
"{. c #FBF5F9",
"}. c #F6FDFC",
"|. c #FCFBFC",
" X c None",
/* pixels */
" X X X X X X X X X X X X X X X X X X X X X X X X X X X X X X X X",
" X X X X X X X X X X X X X X X X X X X X X X X X X X X X X X X X",
" X X X X X X X X X X X X5 X         X &  X X X X X X X X X X X X",
" X X X X X X X X X X X XG l h j g g g D  X X X X X X X X X X X X",
" X X X X X X X X X X7   G.{.|.|.|.|.|.H.X 6  X X X X X X X X X X",
" X X X X X X X X X Xb z J.|.[.}.|.|.|.E.P J  X X X X X X X X X X",
" X X X X X X X X X@  .$.L.[.'.|.|.|.|.|.|.S.  9  X X X X X X X X",
" X X X X X X X Xn M o.%.m.C.'.|.|.|.|.|.|.H.Q W  X X X X X X X X",
" X X X X X X X. ] *.=.=.;.#.I.[.|.|.|.|.|.|.'.l.   X X X X X X X",
" X X X X X Xi o 9.t.u.t.2.:.b.B.[.[.|.[.|.!.N.q.. r  X X X X X X",
" X X X X X Xr   k.[.[.'.4.:.*.#.~.|.|.(.(.K.#. .@ u  X X X X X X",
" X X X X X X^ _ J.{.|.[.M.r.i.p.^.(.c.p.n.y.&.o.N C  X X X X X X",
" X X X X X  g.{.}.|.|.}.[.'.|.|.|.!.$.=.,.,.<.&.=.] +  X X X X X",
" X X X X X  Y ( G.|.d.( E.{.s.( 0.0.1.*.` N B ] =.} +  X X X X X",
" X X X X XX     k.|.k . G.{.8     1 @...2 . @ v @.{ o  X X X X X",
" X X X X X X7   L ^ H a ~ / k d d A c c f s a Z M m  X X X X X X",
" X X X X X X8       K E = X J ~ Q L + # E R ! S . u  X X X X X X",
" X X X X X Xu   t k L E H k 4 , , t j d , > , y g a u  X X X X X",
" X X X X X Xp . H Y T I U R %       R L       : E l    X X X X X",
" X X X X Xw V ' b 4 > > > > f.l.l.j.> a z.l.l.d.> -   0  X X X X",
" X X X X X+ ' *.x 1 @ + o   W.|.|.W.  y {.|.|.z.    X 9  X X X X",
" X X X X X. ] %.X.....| V.D.`.|.|.|.S.S.[.|.]./.D.a.  9  X X X X",
" X X X X X+ ' @.,.-.<.$.P.{.].|.{.'.'.(.(.{.|.}.|.h.X 0  X X X X",
" X X X X X Xe 3 v.P.P.P.[.|.{.^.w.5.6.6.7.e.'.D.t D  X X X X X X",
" X X X X X X XX h.].|.|.|.|.|.^.3.1.*.=.>.8.(.z.X 9  X X X X X X",
" X X X X X X X Xp 8 S.|.|.|.|.|.R.Y.Y.Z.<.X.4 a  X X X X X X X X",
" X X X X X X X X7 $ S.`.`._.`._.`./.`.U.+.] # 5  X X X X X X X X",
" X X X X X X X X X Xr = ; = - - < * = : 2 4  X X X X X X X X X X",
" X X X X X X X X X X9 % % X $ X O O $ O % 9  X X X X X X X X X X",
" X X X X X X X X X X X X X X X X X X X X X X X X X X X X X X X X",
" X X X X X X X X X X X X X X X X X X X X X X X X X X X X X X X X",
" X X X X X X X X X X X X X X X X X X X X X X X X X X X X X X X X"
};
