/* XPM */
static char *Collect21702546140[] = {
/* columns rows colors chars-per-pixel */
"64 64 241 2 ",
"   c None",
".  c #020301",
"X  c #0B0202",
"o  c #000B01",
"O  c #090B07",
"+  c #03050A",
"@  c #0B0C0B",
"#  c #08080A",
"$  c #130100",
"%  c #1C0101",
"&  c #190906",
"*  c #001202",
"=  c #051B0B",
"-  c #061708",
";  c #11160D",
":  c #090B11",
">  c #100F15",
",  c #0B1113",
"<  c #0B1A14",
"1  c #131314",
"2  c #1B1C1C",
"3  c #191617",
"4  c #240000",
"5  c #2C0000",
"6  c #330000",
"7  c #3B0000",
"8  c #251A19",
"9  c #351012",
"0  c #032208",
"q  c #052815",
"w  c #152318",
"e  c #093616",
"r  c #18381D",
"t  c #21221C",
"y  c #2B361E",
"u  c #1D1E20",
"i  c #1D2323",
"p  c #193924",
"a  c #242324",
"s  c #27292A",
"d  c #34282A",
"f  c #293B27",
"g  c #2C2C31",
"h  c #362C33",
"j  c #2D3234",
"k  c #343434",
"l  c #393A3A",
"z  c #383739",
"x  c #36352D",
"c  c #440000",
"v  c #4C0000",
"b  c #470F0E",
"n  c #5B0000",
"m  c #570301",
"M  c #461C17",
"N  c #551715",
"B  c #551209",
"V  c #6B0101",
"C  c #650604",
"Z  c #740000",
"A  c #780507",
"S  c #761413",
"D  c #701416",
"F  c #453C3B",
"G  c #4B2F2A",
"H  c #502119",
"J  c #0E4019",
"K  c #1C4529",
"L  c #1A5031",
"P  c #23442A",
"I  c #374639",
"U  c #2B5737",
"Y  c #33543A",
"T  c #2B4F35",
"R  c #454536",
"E  c #4C4E36",
"W  c #614B3B",
"Q  c #3D4846",
"!  c #355E43",
"~  c #3B5A45",
"^  c #2B5E43",
"/  c #386248",
"(  c #474748",
")  c #554B4B",
"_  c #475849",
"`  c #56534D",
"'  c #4C4D51",
"]  c #454F50",
"[  c #554D54",
"{  c #4E5354",
"}  c #445456",
"|  c #535353",
" . c #55535A",
".. c #555A5C",
"X. c #5B5B5B",
"o. c #595756",
"O. c #615959",
"+. c #44654A",
"@. c #51624A",
"#. c #496752",
"$. c #57665B",
"%. c #635D67",
"&. c #5C6561",
"*. c #6B6B6C",
"=. c #676D67",
"-. c #756B6B",
";. c #69716A",
":. c #6E6D71",
">. c #6D7274",
",. c #75747A",
"<. c #7B7B7B",
"1. c #777577",
"2. c #726D74",
"3. c #505A63",
"4. c #880405",
"5. c #930100",
"6. c #9B0404",
"7. c #881517",
"8. c #991515",
"9. c #8C100E",
"0. c #A50204",
"q. c #AB100E",
"w. c #AA1718",
"e. c #B6181A",
"r. c #B7090F",
"t. c #8D211E",
"y. c #BE201D",
"u. c #B61C26",
"i. c #B82629",
"p. c #AE2221",
"a. c #C60505",
"s. c #DD0C0B",
"d. c #DB0808",
"f. c #CC110E",
"g. c #D2130F",
"h. c #CD0E1A",
"j. c #DA0C14",
"k. c #CC1A1B",
"l. c #C71518",
"z. c #DB1415",
"x. c #D51C1C",
"c. c #D51418",
"v. c #EC0203",
"b. c #EB0A05",
"n. c #E5040A",
"m. c #E40C0D",
"M. c #EA0A0C",
"N. c #E70707",
"B. c #F40304",
"V. c #F5040B",
"C. c #F30A0B",
"Z. c #F90807",
"A. c #E30D14",
"S. c #EC0B14",
"D. c #E40817",
"F. c #F50913",
"G. c #EB1319",
"H. c #E61415",
"J. c #EF110C",
"K. c #CD221E",
"L. c #C81B22",
"P. c #DC1422",
"I. c #C72628",
"U. c #D52123",
"Y. c #D43637",
"T. c #CC3330",
"R. c #E33439",
"E. c #F6423C",
"W. c #CA443B",
"Q. c #D03D43",
"!. c #8B4E50",
"~. c #AD484B",
"^. c #80635F",
"/. c #BE615A",
"(. c #8E7072",
"). c #CB4E4C",
"_. c #F75758",
"`. c #EF5053",
"'. c #E65B62",
"]. c #DB6967",
"[. c #D57072",
"{. c #EF6A65",
"}. c #D75B65",
"|. c #7E8383",
" X c #8A8987",
".X c #958E90",
"XX c #989896",
"oX c #92918D",
"OX c #A9A9A8",
"+X c #B1A8AD",
"@X c #AFB0AC",
"#X c #B4B8B3",
"$X c #FF8386",
"%X c #F89C9D",
"&X c #EB999D",
"*X c #FFA49F",
"=X c #C1BDBC",
"-X c #C8AEAD",
";X c #FFADAC",
":X c #FBA9A7",
">X c #FFB4BC",
",X c #FFBBBD",
"<X c #FCB5B5",
"1X c #EEACB2",
"2X c #BBC0B9",
"3X c #C4C0BF",
"4X c #FFC1BD",
"5X c #FEBFC7",
"6X c #BEC7C7",
"7X c #C8C8C8",
"8X c #DADCDC",
"9X c #D5D6D7",
"0X c #FFCCCC",
"qX c #FFC7C4",
"wX c #E3D9D7",
"eX c #FFD7D7",
"rX c #FFD3D0",
"tX c #DCE2DF",
"yX c #FFE3D9",
"uX c #E0E8DB",
"iX c #DEDCE1",
"pX c #FFD7E1",
"aX c #DBE3E3",
"sX c #E6E4E5",
"dX c #E7E9E8",
"fX c #FFE5E3",
"gX c #FFEBE3",
"hX c #FFEBEC",
"jX c #F9E7ED",
"kX c #EBF5ED",
"lX c #FFF2EC",
"zX c #FDF5EA",
"xX c #EFF8F6",
"cX c #FEF5F4",
"vX c #F5FBF5",
"bX c #FDFBF4",
"nX c #FDF6FC",
"mX c #F5FDFD",
"MX c #FDFDFD",
"NX c #F4F5F7",
"BX c #F4EEF4",
/* pixels */
"                                                                                                                                ",
"                                                                                                                                ",
"                                                                                                                                ",
"                                                        /   ^ / / ! !                                                           ",
"                                                r * o o . o . o o o o . o * o e                                                 ",
"                                                r . . O . . . . . . . . . . . e                                                 ",
"                                                p + . . . . . + . . X . X o o w                                                 ",
"                                            U T &.*.>.*.*.>.*.:.2.*.*.;.*.=.;.$.I +.                                            ",
"                                        r * . o +XnXnXnXMXMXMXmXMXMXMXMXMXMXMX#Xo o o K                                         ",
"                                        y X X X +XnXMXnXcXbXvXMXMXMXMXMXMXMXMX#X. . o r                                         ",
"                                        G 4 4 % +XMXMXMXbXbXvXmXMXMXMXMXMXMXMX=X. + . f                                         ",
"                                    K f N S S D -XMXMXvXbXbXmXmXMXMXMXMXMXMXMX8XoX(.oX=.f K L                                   ",
"                                  o o 4 A h.P.i.<XbXMXzXbXzXMXmXMXMXmXmXMXmXMXnXMXnXMXXXo * o P                                 ",
"                                  . $ 6 0.j.V.x.:XgXcXNXcXbXmXmXmXmXMXMXMXMXMXMXnXMXnXXX. . . T                                 ",
"                                R 4 5 v 0.S.B.s.*XfXhXhXcXMXnXMXMXMXMXMXMXMXMXMXMXMXMXXXo . . I                                 ",
"                          e e y H D 7.0.a.M.B.N.E.{.'.[.rXMXnXMXMXMXMXMXnXMXMXMXMXMXmXtXOXOX@X$.r e J                           ",
"                          * o $ V y.f.m.F.B.B.B.b.b.m.I.qXcXMXMXMXNXMXnXMXMXMXMXmXmXMXMXMXMXmX<.. o *                           ",
"                          o . 4 Z l.H.M.N.M.G.M.Z.B.Z.c.,XlXcXNXbXMXMXMXnXnXmXvXMXmXNXMXzXhXcX(.X X o                           ",
"                        +.. o $ V i.I.k.U.L.l.x.C.B.Z.G.:XpXfXgXlXMXnXnXnXMXMXMXMXMXMXNXgXyXcX(.$ + o !                         ",
"                        / o . & !.<X;X;X>X,X;X;XE.V.Z.S.R.).W.].hXMXnXMXMXnXbXbXbXnXMX1X/.)./.D % . o ~                         ",
"                        / o . . -.nXzXcXcXcXcXfX_.m.B.Z.J.H.b.I.eXnXMXMXmXxXbXzXbXzXbX%Xe.z.l.4.% + o /                         ",
"                        +.o O o >.mXvXMXMXMXMXlX}.L.G.H.s.d.b.K.rXnXMXvXMXMXgXzXzXyXgX%Xz.C.H.5.5 X . E                         ",
"                        _ < ; O ;.mXMXcXnXnXMXcX[.i.i.I.Y.I.T.).eXMXbXcXeXeX4XyXrXyXeX$XA.v.v.0.n 7 5 E                         ",
"                  0 = - _ tX9XtXkXMXcXMXMXnXMXcXeX0X0XqX0XqX4XqXcXnXbXeX~.W.Y.Y.T.Y.Y.K.J.B.B.A.r.p.t.B & 0 0                   ",
"                  o o . ( nXMXmXmXvXMXbXMXMXmXMXcXcXhXcXnXcXcXbXMXMXzXqXI.z.d.S.D.j.D.S.F.v.V.V.n.z.e.V % . *                   ",
"                  * o . ) nXMXMXmXvXMXMXmXmXmXmXMXzXbXvXMXmXmXmXbXcXbX0XU.C.Z.V.S.G.A.j.j.G.S.n.Z.C.c.Z 4 . o                   ",
"                  * . . ( iXiX9XdXnXnXnXdXaX8XsXvXMXzXNXiXiXiXiXwXwXwX:Xx.B.Z.d.a.q.w.w.w.u.q.f.F.v.g.Z 4 O o                   ",
"                  * . . # @ > 3 <.MXnXMX|., 1 @ @XMXMXnX' > > > 3 & & B f.F.Z.a.V v v c c v m 6.b.b.g.Z % o o                   ",
"                  o . . + O @ . -.nXMXmX>.. X . +XcXMXBXz + : + X $ $ c f.v.n.0.c 5 % $ 4 5 6 4.s.M.k.Z % o o                   ",
"                  * o * . . . X -.cXMXMX>.. X X OXMXnXnXz . . . # . X 7 e.z.h.w.5 X . . O $ 4 A L.h.i.n X * o                   ",
"                  r e q - * . . | 7X6X6X=.@ 2 1  X7X3X=Xl ; ; 1 > : 8 M S 8.9.D 9 3 < < , & 9 N 7.9.7.N w q q                   ",
"                        #.. . X X . # . s ..' ' i + o ; I o.) { ] ..` F 6 7 6 b ) [ 3.} } ..o.M 7 7 6 W                         ",
"                          . . . X . + . j ..` ` 2 . . o I  . . .{ X.o.F % % $ 8 ) o.{ ..] ..' h $ $ . _                         ",
"                        +.. . X X . . + j ....O.a . O o R ) %.[ ..|  .F $ . . @ ` o.| | { &.[ s + . o +.                        ",
"                        #.o . . # 2 i i k ` ) ` d 3 2 3 k x l k l j ( z 2 u a a z x x k z z F d u 1 3 T +./                     ",
"                        +.o . + s | ..{ | o.` O.[ %.X.' 3 . . O + . + > ( X.| l + . . O . . . d X.o.` t . o *                   ",
"                        +.o . . 8 X.' ' .._ ` `  .' ' { w o . . . # . @ { | | l . . . . . . . x ) ) [ u + o *                   ",
"                        _ $ % $ d O.[ | $._ ` `  .' .. .= o . . . . . O | o.X.( . . . . . . . a X.&.o.a . + o                   ",
"                  T Y R H B Z C N G G h g s s s g g h z &.<.,.,.1.-.<.>.k s g Q >.,.,.,.,.2.<. .g g s 1 . o o                   ",
"                  * o $ v i.k.e.D % 4 # . o . . + + . . 7XMXnXMXMXnXnX9X@ . . ( mXMXMXnXMXnXMX,.. + + X . . o #.                ",
"                  o # % C e.m.g.D 4 $ X . O . . . + + @ 7XMXMXmXMXcXMX9X1 + . R nXMXMXnXMXMXmX,.. . + . . * * +.                ",
"                  - . % V x.J.m.4.c 5 5 5 5 4 % $ & . . 3XnXMXMXnXMXNX9XO o . ' BXMXMXmXMXMXmX|.+ . . @ . . *                   ",
"                  * . % V l.v.B.h.0.5.5.5.5.5.A !.XXXX.XdXbXMXMXMXMXMXNXXXXXoXOXcXMXbXMXMXvXMX2XoX XXXh . O o                   ",
"                  * . % V x.N.B.n.d.z.H.d.m.A.L.<XcXcXMXbXMXMXnXMXNXMXmXMXvXmXvXbXcXcXMXvXkXMXMXbXbXMXX.. . * +.                ",
"                  o o 4 V k.N.B.C.v.V.v.B.B.V.k.;XcXcXMXkXvXMXMXMXMXnXnXvXvXvXvXbXlXcXnXMXmXmXmXMXbXMXX.+ o * +.                ",
"                  * O $ m p.x.g.g.c.j.j.z.z.z.u.1XbXMXvXmXvXbXnXcXcXhXhXlXzXgXgXlXhXBXnXvXmXMXMXMXMXMX$.o o *                   ",
"                      #.G 7 m n ~.:X;X>X;X:X:X>XfXMXMXkXMXvXnXhX[.'._.`._.`._._._.`.}.&XcXMXcXOX{ { Q _ +.U                     ",
"                        @.X $ % ^.cXcXcXcXnXcXcXMXnXMXMXbXbXnXeXT.s.N.B.N.M.N.m.F.j.L.].hXzXcX1.. + o /                         ",
"                          o o . =.MXnXnXMXnXMXnXnXMXMXbXnXMXnXpXY.n.C.B.v.C.V.B.Z.b.g.{.zXzXMX,.o o o ~                         ",
"                          * * o =.kXkXNXxXnXMXMXMXMXMXMXMXMXMXjXQ.L.x.x.x.x.H.S.B.Z.s.{.hXmXMX<.o * *                           ",
"                                _ f I k OXMXmXmXMXMXMXMXMXMXMXnX5X5XqX4X4XqX5X$XS.v.A.q.H z z Q $.                              ",
"                                Y o . . oXmXMXMXMXMXmXmXmXmXMXMXnXcXbXbXnXcXjX1Xz.F.A.6.5 . . ~                                 ",
"                                Y o o .  XMXMXMXMXMXMXMXMXMXnXMXMXMXbXbXvXbXnX5Xh.S.j.4.4 O o P                                 ",
"                                  * 0 *   aXdXdXsXdXsXsXdXdXsXsXaXdXuXtXdXBXjX1Xu.r.e.C & < *                                   ",
"                                        Y i i i i a a u a a t a d a t t t w s 8 7 c 6 G                                         ",
"                                        K o o . . + . . . X . . . X X . . . + . $ X X f                                         ",
"                                        P * o o . . . . . . . . X X X # . . + X . . . P                                         ",
"                                        P 0 = = = = = = = - - - ; ; - < - 0 w o q 0 = K                                         ",
"                                                                                                                                ",
"                                                                                                                                ",
"                                                                                                                                ",
"                                                                                                                                ",
"                                                                                                                                ",
"                                                                                                                                "
};
