/* XPM */
static char *Egg4_32[] = {
/* columns rows colors chars-per-pixel */
"32 32 179 2 ",
"   c #040402",
".  c #0D0503",
"X  c #020B02",
"o  c #05060B",
"O  c #0D0B0D",
"+  c #080707",
"@  c #130403",
"#  c #130C0E",
"$  c #1C0707",
"%  c #031305",
"&  c #0D180C",
"*  c #0C130C",
"=  c #13100E",
"-  c #150F15",
";  c #131215",
":  c #1A1517",
">  c #1D1C13",
",  c #151A18",
"<  c #1D1D1B",
"1  c #250303",
"2  c #2A0302",
"3  c #3B0706",
"4  c #211B18",
"5  c #0D200F",
"6  c #0F251A",
"7  c #132C19",
"8  c #182516",
"9  c #18311D",
"0  c #383C0D",
"q  c #272919",
"w  c #302B17",
"e  c #3B1C23",
"r  c #1B3420",
"t  c #232721",
"y  c #252C23",
"u  c #362624",
"i  c #2F332D",
"p  c #34382E",
"a  c #2C2B33",
"s  c #392F31",
"d  c #2C3034",
"f  c #363632",
"g  c #39393A",
"h  c #450201",
"j  c #5A0F12",
"k  c #6E0D0E",
"l  c #7B0C0C",
"z  c #791109",
"x  c #6F1711",
"c  c #6F3B3F",
"v  c #753030",
"b  c #24422D",
"n  c #2D412E",
"m  c #294332",
"M  c #3F463F",
"N  c #2D5336",
"B  c #484B26",
"V  c #47453A",
"C  c #645D3E",
"Z  c #71563B",
"A  c #67632E",
"S  c #65663B",
"D  c #7B7638",
"F  c #3C3C40",
"G  c #353E40",
"H  c #403D40",
"J  c #335A47",
"K  c #444443",
"L  c #49494A",
"P  c #484848",
"I  c #534947",
"U  c #4E534B",
"Y  c #525346",
"T  c #5A5646",
"R  c #54534C",
"E  c #585748",
"W  c #4D5754",
"Q  c #545453",
"!  c #55545A",
"~  c #585458",
"^  c #5B5857",
"/  c #615F47",
"(  c #635A5E",
")  c #48644D",
"_  c #58675C",
"`  c #4A7D5A",
"'  c #686041",
"]  c #776E6D",
"[  c #787A77",
"{  c #6B6C69",
"}  c #880B0A",
"|  c #831214",
" . c #8E1C1D",
".. c #AD0A0A",
"X. c #B60908",
"o. c #A81819",
"O. c #B53531",
"+. c #C10B0B",
"@. c #DC0E0B",
"#. c #D20B09",
"$. c #D7100B",
"%. c #DB0D18",
"&. c #CB171E",
"*. c #D31618",
"=. c #D51316",
"-. c #EA0B06",
";. c #E20D0C",
":. c #E80D0A",
">. c #E1100B",
",. c #E60B13",
"<. c #E81211",
"1. c #D01722",
"2. c #E40F20",
"3. c #DC3638",
"4. c #EF2524",
"5. c #EC3439",
"6. c #906872",
"7. c #DA5C5C",
"8. c #DB4B48",
"9. c #E44344",
"0. c #E65051",
"q. c #DE6E6D",
"w. c #DB7073",
"e. c #E5686C",
"r. c #EA7470",
"t. c #50815F",
"y. c #7B8079",
"u. c #9D943B",
"i. c #A89D35",
"p. c #B9AE2F",
"a. c #B2A632",
"s. c #E9D636",
"d. c #A3984B",
"f. c #C7827E",
"g. c #EE807B",
"h. c #D8C84F",
"j. c #F9EA42",
"k. c #7C7E80",
"l. c #867B87",
"z. c #919394",
"x. c #9D9E99",
"c. c #898986",
"v. c #A1A69F",
"b. c #AEAFAB",
"n. c #A4A5A2",
"m. c #B1AEAA",
"M. c #B4B3B4",
"N. c #B8B9B9",
"B. c #DD8A8B",
"V. c #E79996",
"C. c #EDB9B8",
"Z. c #FCBABA",
"A. c #EFC0BD",
"S. c #F9C1BE",
"D. c #FDBFC0",
"F. c #C7C6C7",
"G. c #D1CDCB",
"H. c #D8D5CC",
"J. c #CFD2D2",
"K. c #D5D9D6",
"L. c #DCDBDC",
"P. c #D8D8D8",
"I. c #FAC8C8",
"U. c #FBD4D4",
"Y. c #FDD9D4",
"T. c #E2E0D6",
"R. c #FEE2DB",
"E. c #EDECEC",
"W. c #E9EBE5",
"Q. c #FDEBEA",
"!. c #FCF4EE",
"~. c #FFFBEE",
"^. c #FCF6F4",
"/. c #FDF9F4",
"(. c #FBF6F9",
"). c #F5FCFB",
"_. c #FCFCFB",
"`. c #F4F3F4",
"'. c None",
/* pixels */
"'.'.'.'.'.'.'.'.'.'.'.'.'.'.'.'.'.'.'.'.'.'.'.'.'.'.'.'.'.'.'.'.",
"'.'.'.'.'.'.'.'.'.'.'.'.'.'.'.'.'.'.'.'.'.'.'.'.'.'.'.'.'.'.'.'.",
"'.'.'.'.'.'.'.'.'.'.'.'.'.% X     X   '.'.'.'.'.'.'.'.'.'.'.'.'.",
"'.'.'.'.'.'.'.'.'.'.'.'.8 v.M.M.M.M.M.[ '.'.'.'.'.'.'.'.'.'.'.'.",
"'.'.'.'.'.'.'.'.'.'.'.w 2 T.)._._._._.v.> '.'.'.'.'.'.'.'.'.'.'.",
"'.'.'.'.'.'.'.'.'.'.@ | 1.Y./._._._._.).^.f 5 '.'.'.'.'.'.'.'.'.",
"'.'.'.'.'.'.'.'.'.w k X.:.g.C.^.)._._._.).c._ b '.'.'.'.'.'.'.'.",
"'.'.'.'.'.'.'.'.& 2 1.@.:.-.0.Q./._._._._._.G.. '.'.'.'.'.'.'.'.",
"'.'.'.'.'.'.'.'.7 e I.I.Z.4.<.9.C._._.(.(.e.O.. N '.'.'.'.'.'.'.",
"'.'.'.'.'.'.'.'.p Y /.`.(.8.5.5.C.^.U.U.I.5.#.h V ) '.'.'.'.'.'.",
"'.'.'.'.'.'.'.X F.).).).).(./.^.~.R.=.;.@.;.:.=.j . '.'.'.'.'.'.",
"'.'.'.'.'.'.'.  ( z.).N.k.E.P.[ l.6.<.+.} l  .B.c X t.'.'.'.'.'.",
"'.'.'.'.'.'.'.    a ).[ o L.M.o   2 *.} $ @ s ~.] X t.'.'.'.'.'.",
"'.'.'.'.'.'.'.    # t g V i i L P V 1 e I P M t * X '.'.'.'.'.'.",
"'.'.'.'.'.'.'.'.X o , B D q t ! Q Y 0 B T R M . * 7 '.'.'.'.'.'.",
"'.'.'.'.'.'.'.'.'.# Y a.j.S Q Q Q S j.p.Y ! P   n '.'.'.'.'.'.'.",
"'.'.'.'.'.'.'.'.'.- L i.s.S R ! ! A s.a.T Y K   '.'.'.'.'.'.'.'.",
"'.'.'.'.'.'.'.'.8 # T i.h./ R R W / h.d.E Q K   '.'.'.'.'.'.'.'.",
"'.'.'.'.'.'.'.'.6 * R T Z ( Q ~ Q R C T ~ L K   '.'.'.'.'.'.'.'.",
"'.'.'.'.'.'.'.'.8 # R ~ ! E L g s H Q L F H p 8 m '.'.'.'.'.'.'.",
"'.'.'.'.'.'.'.'.> # ! ! Q W J . . o W a     ; Q t X '.'.'.'.'.'.",
"'.'.'.'.'.'.'.q z | 4 < , 4 H m.b.n.< ^ b.M.z.< ; X '.'.'.'.'.'.",
"'.'.'.'.'.'.'.. ..+.3 1 2 : ^ _._.E.> [ _._.J.; # X '.'.'.'.'.'.",
"'.'.'.'.'.'.'.@ ..-.#.=.&.Y.(.)._._.Q.(._._._.`.{ X '.'.'.'.'.'.",
"'.'.'.'.'.'.'.9 x o.w.e.w.Q._._.I.V.V.V.V.Q.W.x._ 7 '.'.'.'.'.'.",
"'.'.'.'.'.'.'.'.4 u !././._._./.7.%.,.:.$.I.F.% b '.'.'.'.'.'.'.",
"'.'.'.'.'.'.'.'.'.J M n.)._._.).U.Z.S.r.>.v H J '.'.'.'.'.'.'.'.",
"'.'.'.'.'.'.'.'.'.'.* y.K.L.P.P.K.H.H.f.o.3 r '.'.'.'.'.'.'.'.'.",
"'.'.'.'.'.'.'.'.'.'.'.r   o     X o   . @ ) '.'.'.'.'.'.'.'.'.'.",
"'.'.'.'.'.'.'.'.'.'.'.'.'.'.'.'.'.'.'.'.'.'.'.'.'.'.'.'.'.'.'.'.",
"'.'.'.'.'.'.'.'.'.'.'.'.'.'.'.'.'.'.'.'.'.'.'.'.'.'.'.'.'.'.'.'.",
"'.'.'.'.'.'.'.'.'.'.'.'.'.'.'.'.'.'.'.'.'.'.'.'.'.'.'.'.'.'.'.'."
};
