/* XPM */
static char *Collect11702546140[] = {
/* columns rows colors chars-per-pixel */
"64 64 243 2 ",
"   c None",
".  c #020301",
"X  c #0B0202",
"o  c #010B01",
"O  c #0B0A02",
"+  c #02020A",
"@  c #0B030A",
"#  c #020A0A",
"$  c #0B0E0A",
"%  c #140100",
"&  c #1C0000",
"*  c #160B08",
"=  c #011302",
"-  c #011A03",
";  c #011C0B",
":  c #0A1807",
">  c #131408",
",  c #0C0A13",
"<  c #1B1818",
"1  c #0D1115",
"2  c #220100",
"3  c #2A0000",
"4  c #330001",
"5  c #3C0101",
"6  c #251A1D",
"7  c #391C0C",
"8  c #06250A",
"9  c #0B2A13",
"0  c #092614",
"q  c #172718",
"w  c #112E11",
"e  c #252419",
"r  c #3E361F",
"t  c #1B1C22",
"y  c #231926",
"u  c #1A3A25",
"i  c #1E2329",
"p  c #242324",
"a  c #292A2A",
"s  c #332F29",
"d  c #293829",
"f  c #34352C",
"g  c #2A2B32",
"h  c #2B3734",
"j  c #353A34",
"k  c #3B3D3C",
"l  c #363837",
"z  c #312D33",
"x  c #440101",
"c  c #4B0000",
"v  c #4A000F",
"b  c #580202",
"n  c #4D0F11",
"m  c #630000",
"M  c #6C0000",
"N  c #760400",
"B  c #641506",
"V  c #52291E",
"C  c #7E1D26",
"Z  c #432A29",
"A  c #443932",
"S  c #562936",
"D  c #643026",
"F  c #1C472E",
"G  c #26422A",
"H  c #284933",
"J  c #3B443C",
"K  c #325235",
"L  c #43441D",
"P  c #797419",
"I  c #6E6C19",
"U  c #55532A",
"Y  c #44463B",
"T  c #58553A",
"R  c #4C4D33",
"E  c #7C762A",
"W  c #766935",
"Q  c #777435",
"!  c #6E6929",
"~  c #625F38",
"^  c #3E3B42",
"/  c #4A3E40",
"(  c #1F4D40",
")  c #3C4541",
"_  c #395B44",
"`  c #2F5A4B",
"'  c #424343",
"]  c #4D4C47",
"[  c #554D49",
"{  c #4D5146",
"}  c #4E534B",
"|  c #465948",
" . c #545444",
".. c #5C5645",
"X. c #54544C",
"o. c #545A4D",
"O. c #595749",
"+. c #4C4C53",
"@. c #544E55",
"#. c #4D5353",
"$. c #4B5856",
"%. c #545453",
"&. c #5A5553",
"*. c #565A54",
"=. c #5A5B54",
"-. c #54545A",
";. c #59565B",
":. c #5B5A5B",
">. c #57585B",
",. c #635746",
"<. c #635855",
"1. c #675054",
"2. c #467554",
"3. c #54755D",
"4. c #4F694E",
"5. c #756A42",
"6. c #67645E",
"7. c #6D6D49",
"8. c #595962",
"9. c #577365",
"0. c #676767",
"q. c #687567",
"w. c #757272",
"e. c #706972",
"r. c #890400",
"t. c #931110",
"y. c #AA1717",
"u. c #BA1818",
"i. c #B80A08",
"p. c #BE1E26",
"a. c #8F2F2F",
"s. c #B92327",
"d. c #AA282B",
"f. c #9A1D20",
"g. c #C70806",
"h. c #D80D09",
"j. c #DB120C",
"k. c #DA0C15",
"l. c #C81718",
"z. c #D41313",
"x. c #D61519",
"c. c #C81314",
"v. c #ED0A05",
"b. c #EC0B0C",
"n. c #E60807",
"m. c #F30906",
"M. c #E2120D",
"N. c #E21206",
"B. c #E30B13",
"V. c #E70C1B",
"C. c #E71217",
"Z. c #C41B24",
"A. c #DC1121",
"S. c #E60F22",
"D. c #C72427",
"F. c #D13D3E",
"G. c #DD2026",
"H. c #F0322F",
"J. c #847816",
"K. c #9A4437",
"L. c #D04B3C",
"P. c #BF3C42",
"I. c #B84F49",
"U. c #8D6E78",
"Y. c #994344",
"T. c #DA5454",
"R. c #CD4D4E",
"E. c #F45053",
"W. c #CC6E6C",
"Q. c #E87977",
"!. c #F46B6D",
"~. c #D9635F",
"^. c #588967",
"/. c #528C65",
"(. c #65856C",
"). c #D5C92E",
"_. c #EAD135",
"`. c #FBEA36",
"'. c #F8E733",
"]. c #999449",
"[. c #A89F42",
"{. c #C4B658",
"}. c #D4BF4A",
"|. c #C5BA6B",
" X c #D7C949",
".X c #D4C553",
"XX c #EBD749",
"oX c #EAE258",
"OX c #F7EA4A",
"+X c #E4DB64",
"@X c #7B7B85",
"#X c #FF7C82",
"$X c #7E8B82",
"%X c #8A8889",
"&X c #949C9A",
"*X c #918D90",
"=X c #9FA5A3",
"-X c #ACB5AD",
";X c #B4B5AD",
":X c #B7B7B6",
">X c #AAAAAB",
",X c #A89F96",
"<X c #FB858A",
"1X c #FB9897",
"2X c #EC9195",
"3X c #FFA09E",
"4X c #FAA8A7",
"5X c #FAB8B8",
"6X c #EBAAAC",
"7X c #D7A3A5",
"8X c #BFCABC",
"9X c #CBC4B7",
"0X c #FEC3BD",
"qX c #C5BFC3",
"wX c #FFBBC2",
"eX c #C9CCC7",
"rX c #DAD9D9",
"tX c #D0CFD0",
"yX c #FFC9C5",
"uX c #FFD9D9",
"iX c #EDD2D4",
"pX c #FFE8DC",
"aX c #E5E3DE",
"sX c #E9DCE7",
"dX c #DEE5E2",
"fX c #EBE9EB",
"gX c #FFECEC",
"hX c #FDE7E6",
"jX c #FFF2ED",
"kX c #FFFAEC",
"lX c #FAF3E9",
"zX c #FAEDF2",
"xX c #EEF8F6",
"cX c #F4F5F3",
"vX c #FFF4F4",
"bX c #F4FAF4",
"nX c #FDFCF5",
"mX c #FEF6FC",
"MX c #F5FDFC",
"NX c #FDFDFD",
"BX c #F5F7FA",
"VX c #EEF1EA",
"CX c #D8DCDF",
/* pixels */
"                                                                                                                                ",
"                                                                                                                                ",
"                                                                                                                                ",
"                                                                                                                                ",
"                                                      o o o . . o . o o .                                                       ",
"                                                    9 . o . X X . . . X . . o                                                   ",
"                                                  K 9.q.q.0.e.e.0.e.e.0.e.q.w.|                                                 ",
"                                              = . $ 9XbXnXNXmXNXNXmXNXNXNXMXcXd o o                                             ",
"                                              = % > 9XbXNXBXNXmXNXmXNXNXNXcXnXj . o                                             ",
"                                            T 2 5 x 9XnXNXNXNXNXNXNXNXBXNXNXVX&.f f |                                           ",
"                                        o X x d.Z.s.yXkXvXNXNXNXNXnXNXNXNXBXNXcXnXVX6.o =                                       ",
"                                        X 4 m l.V.A.5XhXvXNXnXNXNXMXNXNXNXNXcXNXnXnX6.. o G                                     ",
"                                      R 3 c N g.b.C.4XuXjXgXvXnXnXNXNXnXNXNXNXNXnXNX0.> 1 d 9.                                  ",
"                                  8 : 7 f.y.g.b.m.n.H.L.R.6XjXNXNXMXMXNXNXNXBXNXNXBXrXtXtX(.0 9                                 ",
"                                  . X x p.k.n.n.v.m.v.h.l.1XvXbXnXnXNXnXNXNXNXNXNXNXNXNXNX=XX . 8                               ",
"                                G . % c p.x.z.z.z.h.m.m.h.<XhXjXnXmXmXNXNXNXNXNXNXNXmXvXvX,XX o 8                               ",
"                                F o X S 6X2X1X<X1X#XH.m.n.H.!.!.6XzXmXNXBXNXNXNXBXBX2XQ.Q.K.% . 8 /.                            ",
"                              ^.H o . 1.mXzXgXvXvXuXE.n.v.m.M.D.W.gXmXNXNXvXmXmXNXzX#Xp.c.r.& # 8 3.                            ",
"                              ^.G . O Y nXvXnXvXvXzXF.j.M.C.k.l.W.lXnXnXvXvXvXjXgXhX!.A.M.i.4 % > (.^.                          ",
"                              | o.T  .*XnXNXnXnXNXmXQ.~.E.E.E.~.2XjXjXlX0X4X4X4X4X1XE.V.n.g.N b V  .| K                         ",
"                          9 o . %XmXNXNXxXMXNXNXxXMXvXjXjXjXgXkXkXkXlX0XD.x.x.k.x.h.b.n.v.v.C.Z.C & O =                         ",
"                          w o . *XNXBXMXMXMXMXNXxXMXcXNXNXNXMXnXkXnXkXuXx.m.n.v.b.b.j.j.N.j.M.l.f.4 % o 2.                      ",
"                          9 . X e.sXCXxXMXMXNXrXrXdXfXNXNXfXrXaXsXsXsX6XG.m.M.z.i.u.y.y.y.y.R.d.a.3 X o 2.                      ",
"                          w o . * < < 0.xXMXdXa t t rXBXBX@X< < y y y v c.m.g.r.b c c c c Y.uXuXwX+ X = 2./.                    ",
"                          q o X X . + @.MXBXCX, + , tXmXNXe.# O + X % x z.b.g.M 4 2 & & % 1.kXkXiXX o = 2./.                    ",
"                          0 . X . X + 8.NXNXrXt + , :XBXNX0.. . . . * 5 s.l.d.c & X @ , + 0.nXnXeX< . = 3./.                    ",
"                          0 . . . . @ y Y Y ' k / k ' ] J Y ^ ^ k ' A Z 5 5 v S A / ^ ^ J ) J } a . . o 2.                      ",
"                            o . o . X + . $ $ [  .T : o . k -.@.+.} o.Y $ X X ' <.&.] $.} j . . . o . = 3.                      ",
"                            = o . # . + + . > U U U : o O d @.-.;.%.=.G o o o Y O. .X.=.{ j $ X . . o = 2.                      ",
"                                ; o # , h p G ].[.].L e q ' 8.8.+.&.X.7.I I I ~ T =.X.{ { s X X o G K F                         ",
"                                  . o < +.T P oXOXOXQ 4.X.-.@.@.;.%. .! OXOXoXP T +.-.;.:.j . . q (.                            ",
"                                  . X 6 =.R P XX`.OXE T X.#.;.-.%.+.4.Q `.`.`.J.T %.8.+.;.l X . :                               ",
"                                  . @ p } R I XX'.XXE  .o.} -.@.#.%.T E _.`.XXJ.U &.{ } %.j . . 9                               ",
"                                  . + t $...!  X_._.W O.=.%.%.%.8.%.T I ).). XJ.,.&.{ o.$.z + . 8                               ",
"                                d o . < &.T I .X_.XX5.{ o.o.O.X.#.+...W .X X.XE ,.+.%.*.%.l . . 8                               ",
"                                G o . 6 X.T ! {.}.{.7.X.X.X. .+.>.%.O.5.{.+X|.5.[ %.%.X.{ l . . -                               ",
"                                F + . < { O.,.5.W K...&.[ &.<.-.+.&.&...~ W 5.T &.;.X.o.*.l . . 9                               ",
"                                F . . q X.*.o.] ..T 1.&.[ X.-.-.=.X.[ &.....[ @.;.@.'  .X.f . o ;                               ",
"                                H . . 6 o.} @.;.-.@.&.&.X.*.+.-.%.&.:.&.%.[ &.;.-.8.%.0.=.f O . 0 9.                            ",
"                                d o X 6 &.+.;.-.-.#.>.{ $.) t t t < a y +.;.+.g t t t p < p j f d u u                           ",
"                                d . X < 8.$.8.+.;.#.$.| $.i @ + X . . , +.$.-.1 . . + . . p %.*.) o o =                         ",
"                                r % & 6 @.$.;.-.&.%.$.4.$.i @ @ + X . 1 +.8.$.+ # . . + . p ] >.' . . ;                         ",
"                            _ R B m m n s l l z d h f f k ] 0.<.=.0.=.>.l z l %.6.=.0.0.-.:.k z z , . o                         ",
"                          9 = X B u.s.f.2 . . . . . X X . %XnXnXNXNXnXrX$ . $ eXnXMXNXNXNX&X. @ X @ . ;                         ",
"                          9 o & r.z.k.r.4 & X X % X X @ @ *XNXnXNXNXNXtXO > O eXnXNXMXNXNX=Xo X @ X . o                         ",
"                          0 . & r.k.B.i.m x 5 x 5 x s y g >XNXnXNXMXNXaXA > s rXNXNXNXNXMX>Xp z y X o o                         ",
"                          q o 2 r.k.m.v.h.c.c.c.c.s.6XzXzXBXNXMXMXNXNXNXVXgXlXmXNXNXNXMXnXNXfXfXqX< . o                         ",
"                          9 o % r.c.N.n.N.h.k.k.B.Z.yXvXmXNXMXMXnXnXNXvXvXgXmXvXNXmXnXnXMXnXNXNXeXo o =                         ",
"                          9 = O B y.u.D.u.D.G.Z.D.d.yXmXvXNXMXnXlXhXuXuXhXuXhXuXlXpXgXNXnXnXmXnXeX; o =                         ",
"                              4.D c b d.5X0X4X5XwX5XgXnXvXNXNXnX5XW.T.T.R.T.R.R.L.I.5XNXNX-XJ j | | 2.                          ",
"                                f & 3 T lXlXjXvXvXvXNXmXNXNXNXjX1Xu.k.k.V.S.B.B.j.i.1XvXNX&Xo = ; (.                            ",
"                                h . X *.kXnXnXnXcXNXNXNXNXNXNXvX4Xu.A.k.A.S.V.b.m.N.1XzXvX&X= - 8                               ",
"                                  ( ( $.w.w.*XVXMXNXNXmXNXNXMXnXuX2X2X<X<X<XQ.H.v.j.I.U.U.8.H F                                 ",
"                                      ` o o p VXMXMXmXNXNXNXMXMXvXhXjXkXlXlXpXF.M.j.M 2 + d /.                                  ",
"                                        . X e VXMXMXNXmXNXMXNXnXNXnXnXkXpXkXpXI.c.l.b % . u                                     ",
"                                        w w J =X-X:X:X:X:X-X:X;X;X-X-X;X;X;X7Xa.t.f.n e u K                                     ",
"                                            3.- o . . @ + . . X . # + . O . * % 2 & Y (.                                        ",
"                                              = o . . . o . . X X . # # . o # . X o _                                           ",
"                                                = ; ; ; = - : = : : : = = - o 1 = 8                                             ",
"                                                                                                                                ",
"                                                                                                                                ",
"                                                                                                                                ",
"                                                                                                                                ",
"                                                                                                                                "
};
