/* XPM */
static char *door_vertical_close1703950834[] = {
/* columns rows colors chars-per-pixel */
"15 15 2 1 ",
"  c #2C2CFE",
". c gray82",
/* pixels */
"....       ....",
"....       ....",
"....       ....",
"....       ....",
"....       ....",
"....       ....",
"....       ....",
"....       ....",
"....       ....",
"....       ....",
"....       ....",
"....       ....",
"....       ....",
"....       ....",
"....       ...."
};
