/* XPM */
static char *door_horizontal_open1704198110[] = {
/* columns rows colors chars-per-pixel */
"15 15 125 2 ",
"   c #CE0704",
".  c #CC0407",
"X  c #CC080A",
"o  c #D10000",
"O  c #D20000",
"+  c #D20003",
"@  c #D60000",
"#  c #D40300",
"$  c #D70103",
"%  c #D60501",
"&  c #D60602",
"*  c #D70005",
"=  c #D50304",
"-  c #D80001",
";  c #DA0000",
":  c #DC0000",
">  c #DE0000",
",  c #DF0100",
"<  c #D80400",
"1  c #DE0500",
"2  c #D80005",
"3  c #D90106",
"4  c #DD0604",
"5  c #D50B07",
"6  c #D80D00",
"7  c #D1000A",
"8  c #DE0108",
"9  c #D40017",
"0  c #DE0012",
"q  c #E10300",
"w  c #E10008",
"e  c #E30011",
"r  c #DF2822",
"t  c #D9242D",
"y  c #D82336",
"u  c #D02933",
"i  c #DE4C4F",
"p  c #D94A50",
"a  c #C45154",
"s  c #CD545B",
"d  c #D35153",
"f  c #DB5451",
"g  c #DD5056",
"h  c #DC5456",
"j  c #D3545B",
"k  c #D8575B",
"l  c #D2595E",
"z  c #D25460",
"x  c #C5917B",
"c  c #D29485",
"v  c #CC9A9B",
"b  c #D29696",
"n  c #D3CDBD",
"m  c #9593FE",
"M  c #9394FE",
"N  c #9396FF",
"B  c #9496FD",
"V  c #9495FF",
"C  c #9694FF",
"Z  c #9596FF",
"A  c #C6CBC7",
"S  c #CECFC1",
"D  c #CDCDC5",
"F  c #CECECC",
"G  c #D2CEC2",
"H  c #D5CCC7",
"J  c #D4CCCA",
"K  c #D3C8CE",
"L  c #D7CBCD",
"P  c #DECBCD",
"I  c #DCC9CF",
"U  c #D9CECC",
"Y  c #DDCFCE",
"T  c #CCD2C4",
"R  c #CBD8C4",
"E  c #C6D1C9",
"W  c #C2D3CD",
"Q  c #CBD2CA",
"!  c #CDD2CB",
"~  c #C9D4CE",
"^  c #C8D9CF",
"/  c #CCDCCF",
"(  c #D2D0C4",
")  c #D4D0C5",
"_  c #D4D5C5",
"`  c #D9D0C1",
"'  c #D5D8C5",
"]  c #D0D6CA",
"[  c #D7D2CC",
"{  c #D1D4CD",
"}  c #D5D6CE",
"|  c #DAD5CF",
" . c #C8CBD0",
".. c #D7CED1",
"X. c #D2CDD4",
"o. c #D7CDD6",
"O. c #D6CFD6",
"+. c #DACED2",
"@. c #DECED1",
"#. c #D8CED7",
"$. c #D0CDDE",
"%. c #CBD1D1",
"&. c #C8D0D3",
"*. c #CFD1D0",
"=. c #CFD3D2",
"-. c #CFD5D1",
";. c #CAD2D4",
":. c #CBD5D4",
">. c #CED1D8",
",. c #C9D1DC",
"<. c #CDD6DD",
"1. c #CFD9DB",
"2. c #D2D0D3",
"3. c #D0D1D5",
"4. c #D2D3D5",
"5. c #D7D1D5",
"6. c #D0D6D4",
"7. c #DED2D2",
"8. c #D9D0D5",
"9. c #DCD3D4",
"0. c #DBD5D5",
"q. c #D6D1D8",
"w. c #D0D5D9",
"e. c #D7D4DB",
"r. c #D5CEE0",
/* pixels */
"O.Q [ 4.;.U ~ w.~ 8.5.T 7.W ` ",
"-.e. .=.v p r 3 t d b _ F $.[ ",
"H 1.T p 0 q > # 6 2 7 j 9.,.@.",
"=.A g 1 O &   9 2 < > 2 a H Y ",
"m V V V V V V V V V V V B V V ",
"V V m M V V V V B V V V V V V ",
"V V V V V N V V V V V V V V V ",
"V V N m V V V V V V V V V V V ",
"V V V V V V V V V V V V V V V ",
"V V V V N N V V V V V V V V V ",
"V V V V N N V V V m V C V V N ",
"R H l # O * 8 * > & 4 # k { X.",
"+.4.6.j X w * q . # e s D #...",
"#.>.$.J x k u 5 y f c / <.2.^ ",
"n ] 0.P | Q I Q _ G } K #.-.F "
};
