/* XPM */
static char *door_horizontal_open1703952868[] = {
/* columns rows colors chars-per-pixel */
"15 15 2 1 ",
"  c #7D7EE8",
". c gray82",
/* pixels */
"...............",
"...............",
"...............",
"...............",
"               ",
"               ",
"               ",
"               ",
"               ",
"               ",
"               ",
"...............",
"...............",
"...............",
"..............."
};
