/* XPM */
static char *door_vertical_open1704198110[] = {
/* columns rows colors chars-per-pixel */
"15 15 127 2 ",
"   c #C60000",
".  c #CE0000",
"X  c #CB0600",
"o  c #CF0400",
"O  c #C80405",
"+  c #CB0409",
"@  c #D00000",
"#  c #D20003",
"$  c #D60000",
"%  c #D00700",
"&  c #D50006",
"*  c #D50407",
"=  c #D80100",
"-  c #D80001",
";  c #DF0100",
":  c #DE0300",
">  c #DC0500",
",  c #DD0700",
"<  c #DF0005",
"1  c #DD0007",
"2  c #DD0802",
"3  c #DA0C00",
"4  c #D60008",
"5  c #D90008",
"6  c #D90009",
"7  c #D8000D",
"8  c #CF170F",
"9  c #D60219",
"0  c #DA171D",
"q  c #DB181C",
"w  c #E60201",
"e  c #E30502",
"r  c #E10006",
"t  c #E00A02",
"y  c #E0000A",
"u  c #E7000A",
"i  c #E1060A",
"p  c #D91924",
"a  c #CE434A",
"s  c #D54447",
"d  c #D64749",
"f  c #DC454C",
"g  c #DA4950",
"h  c #C45154",
"j  c #CF535D",
"k  c #DE5157",
"l  c #D3545B",
"z  c #D8575B",
"x  c #D2595E",
"c  c #D25460",
"v  c #D49D98",
"b  c #D0A592",
"n  c #DC9BA3",
"m  c #D2A2A2",
"M  c #D3CDBD",
"N  c #D3D1B8",
"B  c #9394FE",
"V  c #9396FF",
"C  c #9695FD",
"Z  c #9496FD",
"A  c #9495FF",
"S  c #9694FF",
"D  c #9597FE",
"F  c #9596FF",
"G  c #9497FF",
"H  c #C6CBC7",
"J  c #CECFC1",
"K  c #CDCDC5",
"L  c #CECECC",
"P  c #D5CCC7",
"I  c #D4C8CA",
"U  c #D5CDCB",
"Y  c #D3C8CE",
"T  c #D7CDCE",
"R  c #D9CECA",
"E  c #DECBCD",
"W  c #DDCFCE",
"Q  c #CBD1C3",
"!  c #CBD8C6",
"~  c #C6D2C8",
"^  c #C2D3CD",
"/  c #CBD2CB",
"(  c #CFD5C9",
")  c #CFD5CB",
"_  c #CBD5CD",
"`  c #CCD6CE",
"'  c #C8D9CF",
"]  c #CEDCCF",
"[  c #D0D0C4",
"{  c #D4D0C5",
"}  c #D9D0C1",
"|  c #D5D8C5",
" . c #D7D2CC",
".. c #D6D2CF",
"X. c #D8D4C9",
"o. c #C8CBD0",
"O. c #CFCCDD",
"+. c #D7CED1",
"@. c #D2CDD4",
"#. c #D5CED5",
"$. c #D7CDD6",
"%. c #D6CFD6",
"&. c #D6CFD7",
"*. c #D8CCD0",
"=. c #DECED1",
"-. c #C5D5D2",
";. c #C8D0D3",
":. c #CFD0D2",
">. c #CFD3D2",
",. c #CFD5D3",
"<. c #CFD0D4",
"1. c #CBD5D6",
"2. c #CFD5D5",
"3. c #CDD8D0",
"4. c #CED1D8",
"5. c #CAD2DD",
"6. c #CDD6DD",
"7. c #CFD9DB",
"8. c #D2D0D3",
"9. c #D7D1D3",
"0. c #D0D1D5",
"q. c #D2D3D5",
"w. c #DDD3D2",
"e. c #DCD3D4",
"r. c #DBD5D5",
"t. c #D7D4DB",
"y. c #D5CEE0",
/* pixels */
"%./ R q.G B B G B B S P  .^ } ",
"` t.o.>.G G S B B G S | o.y. .",
"P 7.Q g B G B G B G B z e.6.=.",
">.H k : G B S B G G B 5 h [ W ",
"2.m 7 2 G S G B B B G w + b ~ ",
"T s e @ B B S B G B B   u f 9.",
",.8 w X G S G G B G G & $ p I ",
"0.2 @ 9 B B G B G B G 5 > * ` ",
"%.0 @ r S G B S G S S 5 O 0 N ",
"2.a t % B G G B B B G $ r d X.",
"%.n 1 3 B S S B G G G > 1 v -.",
"! { x - G B G B B B G @ z | @.",
"T 0.,.l B B B G B S S l K %.@.",
"%.4.O.T G B G B B G B ] 6.@.' ",
"M ( r.E G B G B G G S Y %.2.L "
};
