/* XPM */
static char *egg1703942338[] = {
/* columns rows colors chars-per-pixel */
"15 15 141 2 ",
"   c #110D0A",
".  c #1B0C09",
"X  c #150F11",
"o  c #3A0D08",
"O  c #201C1D",
"+  c #1D221C",
"@  c #1E231D",
"#  c #1D221E",
"$  c #2E2118",
"%  c #3D211D",
"&  c #1F2120",
"*  c #2E2F29",
"=  c #3D2523",
"-  c #3C2722",
";  c #373634",
":  c #313831",
">  c #303936",
",  c #353A36",
"<  c #6C0808",
"1  c #690E0D",
"2  c #6C1110",
"3  c #443B36",
"4  c #523F38",
"5  c #732123",
"6  c #3F443D",
"7  c #3E4442",
"8  c #404740",
"9  c #414B42",
"0  c #404C42",
"q  c #4B4D4A",
"w  c #494D4C",
"e  c #494D4E",
"r  c #4E534F",
"t  c #4E554E",
"y  c #585755",
"u  c #624945",
"i  c #7C5D5A",
"p  c #626260",
"a  c #626763",
"s  c #656368",
"d  c #7C7D7F",
"f  c #7E7E7E",
"g  c #970B0A",
"h  c #911515",
"j  c #9C1116",
"k  c #B00C15",
"l  c #B61115",
"z  c #A21D22",
"x  c #C20B0F",
"c  c #CA130B",
"v  c #E40F11",
"b  c #E7141A",
"n  c #E21818",
"m  c #E61A1B",
"M  c #DF252A",
"N  c #DF3536",
"B  c #DC373D",
"V  c #DD393A",
"C  c #E93842",
"Z  c #805252",
"A  c #BE5F65",
"S  c #8A6A6D",
"D  c #A47F79",
"F  c #CA4644",
"G  c #DF4547",
"H  c #DD484C",
"J  c #DE6A6B",
"K  c #EC636A",
"L  c #E27070",
"P  c #E57F7B",
"I  c #7D8685",
"U  c #838584",
"Y  c #89898B",
"T  c #8D8988",
"R  c #8E938C",
"E  c #9C9C9A",
"W  c #9F9D9E",
"Q  c #A18C87",
"!  c #A5A599",
"~  c #A8A6AB",
"^  c #A9AEA8",
"/  c #B1B6B9",
"(  c #B7BDB9",
")  c #D48080",
"_  c #C5A8A4",
"`  c #C5ABAE",
"'  c #D6ADA7",
"]  c #EAA6A3",
"[  c #F0BBB5",
"{  c #F1B9BA",
"}  c #EFC0BA",
"|  c #C6CDC6",
" . c #CDCFCE",
".. c #D6CBC9",
"X. c #D1D1CF",
"o. c #D1CFD0",
"O. c #D0D0D0",
"+. c gray82",
"@. c #D0D2D1",
"#. c #D1D1D3",
"$. c #D2D2D2",
"%. c #D5DAD4",
"&. c #D3DCD7",
"*. c #D6DADB",
"=. c #DADADA",
"-. c #DBD9DC",
";. c #EBC5C4",
":. c #F1C4C1",
">. c #F3CACE",
",. c #E8D4CD",
"<. c #E1D5D5",
"1. c #EDDBD7",
"2. c #F4D6D6",
"3. c #F0D8D6",
"4. c #DFE1DE",
"5. c #E6E8E3",
"6. c #E7E8E3",
"7. c #F6E8E7",
"8. c #F0EFED",
"9. c #F2F1EC",
"0. c #F7F4EF",
"q. c #F2F0F1",
"w. c #F7F9F4",
"e. c #F9FBF6",
"r. c #FBF4FB",
"t. c #F2FBF8",
"y. c #F3FCF9",
"u. c #F7FDFB",
"i. c #F6FAFD",
"p. c #F9F9F9",
"a. c #F8F8FA",
"s. c #FBF9FA",
"d. c gray98",
"f. c #FBFBFB",
"g. c #F9FEF8",
"h. c #F8FCFB",
"j. c #FBF9FC",
"k. c #FDF8FC",
"l. c #FCFAFD",
"z. c #FDFBFE",
"x. c #FCFCFE",
/* pixels */
"+.+.+.+.+.+.#.+.+.+.+.+.+.+.+.",
"+.+.+.+.+.a e e q t @.+.+.+.+.",
"+.+.X.+.u Q s.x.s.4.7 +.+.+.X.",
"+.+.+.4 j P 0.i.g.w.@.> +.+.+.",
"+.+.* z n b L 9.u.w.a.<.: +.+.",
"+.+.@ ` 3.K m J s.y.2.F o +.+.",
"+.7 ^ 8.r.1.} ,.>.G V v l % X.",
"+.X y *.E / ( s Z c < 2 ) = +.",
"+.  1 i I d d Y S 5 T R 6.; +.",
"+.. x g A D ~ f.&.U f.k.x., +.",
"+.3 h B H ] y.7.{ [ :.q.| 0 +.",
"+.+.6 ! 5.k.i.;.C N M _ 8 +.+.",
"X.+.+.t W -.=.%...' k - +.+.+.",
"+.+.+.+.p @ @ @ @ O $ +.+.+.+.",
"+.X.+.+.+.@.+.+.+.+.+.+.+.+.+."
};
