/* XPM */
static char *egg_player1704291837[] = {
/* columns rows colors chars-per-pixel */
"15 15 221 2 ",
"   c #2D0E0B",
".  c #332E32",
"X  c #6E1203",
"o  c #532822",
"O  c #772929",
"+  c #7E3A37",
"@  c #793C41",
"#  c #7C4646",
"$  c #765453",
"%  c #7A695F",
"&  c #891112",
"*  c #921A1C",
"=  c #B1080B",
"-  c #B2140B",
";  c #AD1313",
":  c #9E1D21",
">  c #A31C22",
",  c #BD1225",
"<  c #8B2C2A",
"1  c #952726",
"2  c #8A3030",
"3  c #903530",
"4  c #963637",
"5  c #BD2426",
"6  c #BE2426",
"7  c #B23032",
"8  c #C70100",
"9  c #CE0000",
"0  c #CB0600",
"q  c #CE0307",
"w  c #C80405",
"e  c #CE0704",
"r  c #CE0108",
"t  c #CB0409",
"y  c #C00D09",
"u  c #D00000",
"i  c #D20100",
"p  c #D30301",
"a  c #D40000",
"s  c #D50001",
"d  c #D60000",
"f  c #D40300",
"g  c #D00501",
"h  c #D60602",
"j  c #D60107",
"k  c #D50407",
"l  c #D80100",
"z  c #DA0000",
"x  c #DA0001",
"c  c #DC0000",
"v  c #DE0000",
"b  c #DF0100",
"n  c #DC0203",
"m  c #D80400",
"M  c #DE0500",
"N  c #D80005",
"B  c #DF0005",
"V  c #DD0007",
"C  c #D80D00",
"Z  c #D90907",
"A  c #DD0804",
"S  c #D7000C",
"D  c #D90008",
"F  c #CF170D",
"G  c #D40017",
"H  c #DE0012",
"J  c #DC0213",
"K  c #D90C13",
"L  c #DA171D",
"P  c #DA191C",
"I  c #E20001",
"U  c #E60200",
"Y  c #E30502",
"T  c #E00A00",
"R  c #E0000A",
"E  c #E7000A",
"W  c #E1060A",
"Q  c #D91924",
"!  c #DF2822",
"~  c #DA2C25",
"^  c #DA252E",
"/  c #D72E33",
"(  c #975654",
")  c #A74043",
"_  c #AA5461",
"`  c #85656A",
"'  c #906869",
"]  c #8C7C7C",
"[  c #917977",
"{  c #CC4448",
"}  c #D54447",
"|  c #D64749",
" . c #DC454C",
".. c #DE4C4F",
"X. c #D94A50",
"o. c #C45154",
"O. c #C05359",
"+. c #CC535A",
"@. c #D35153",
"#. c #DD5056",
"$. c #D3545B",
"%. c #D8575B",
"&. c #D2595E",
"*. c #D65F61",
"=. c #D17374",
"-. c #EB626C",
";. c #E07774",
":. c #AD8774",
">. c #908A8E",
",. c #A19891",
"<. c #B39FA0",
"1. c #A7A9A4",
"2. c #B5ACA5",
"3. c #B3ADAF",
"4. c #ADB3B3",
"5. c #B1BAB9",
"6. c gray73",
"7. c #D29485",
"8. c #CD999B",
"9. c #D29695",
"0. c #D39E96",
"q. c #D0A592",
"w. c #DA9BA3",
"e. c #D2A2A2",
"r. c #C3BBB8",
"t. c #C5BFBF",
"y. c #EEA7A5",
"u. c #E7A6AC",
"i. c #E2BBB4",
"p. c #E9B9B5",
"a. c #F0B0B0",
"s. c #D3CDBD",
"d. c #D3D1B8",
"f. c #BAC4C5",
"g. c #C6CBC7",
"h. c #CECFC1",
"j. c #CDCDC5",
"k. c #CDCFCC",
"l. c #D1CFC2",
"z. c #D5CCC7",
"x. c #D3C9CA",
"c. c #D4CCCA",
"v. c #D6CBCF",
"b. c #DECBCD",
"n. c #DCC9CF",
"m. c #D9CECC",
"M. c #D8CECF",
"N. c #DDCFCE",
"B. c #CBD1C3",
"V. c #CBD8C4",
"C. c #C6D1C9",
"Z. c #C6D2C8",
"A. c #C2D3CD",
"S. c #CBD2CB",
"D. c #CCD2C8",
"F. c #CBD1CF",
"G. c #C8D5CE",
"H. c #CED5CD",
"J. c #CCD6CD",
"K. c #CEDCCF",
"L. c #D2D0C4",
"P. c #D4D0C5",
"I. c #D4D5C7",
"U. c #D9D0C1",
"Y. c #D5D8C7",
"T. c #D6D3CA",
"R. c #D1D4CB",
"E. c #D2D5CA",
"W. c #D7D5C8",
"Q. c #D6D2CF",
"!. c #D5D6CE",
"~. c #DAD7CE",
"^. c #C8CBD0",
"/. c #CFCCDD",
"(. c #D3C8D0",
"). c #D5CFD1",
"_. c #D7CED1",
"`. c #D2CDD4",
"'. c #D5CED5",
"]. c #D7CDD6",
"[. c #D6CFD6",
"{. c #D6CFD7",
"}. c #D9CDD1",
"|. c #DECED1",
" X c #C6D5D2",
".X c #C8D0D3",
"XX c #CFD1D0",
"oX c #CFD3D2",
"OX c #CFD5D3",
"+X c #CCD1D4",
"@X c #CFD0D4",
"#X c #CED2D5",
"$X c #CBD5D6",
"%X c #CFD5D5",
"&X c #C9DAD0",
"*X c #CDD8D0",
"=X c #CED1D8",
"-X c #C9D1DC",
";X c #CDD6DD",
":X c #CFD9DB",
">X c #D0D0D2",
",X c #D2D0D3",
"<X c #D7D1D3",
"1X c #D2D3D5",
"2X c #D6D1D7",
"3X c #D0D6D4",
"4X c #DDD3D2",
"5X c #DBD5D5",
"6X c #DDD4D5",
"7X c #D6D1D8",
"8X c #D0D5D9",
"9X c #D7D4DB",
"0X c #DCD3D8",
"qX c #F3D0CE",
"wX c #E1D6D4",
"eX c #E7D8D5",
"rX c #F4E1DA",
"tX c #D5CEE0",
"yX c #E7E1E3",
"uX c #F1F3F0",
"iX c #F4FAFA",
/* pixels */
"[.S.Q.1XoXv.G.8Xk.7X7XL.4XA.U.",
"H.9X^.oX8...! N ^ @.9.E.^.9XT.",
"z.:XB.X.H c c f C f r $.0X/.}.",
"oXg.#.M f h e G l m c D o.l.Q.",
"3Xe.S A f c l f J f I Y t q.Z.",
"}.} c g R 6 2 < 1 Z I 8 E  .Q.",
"*XF U 0 y ( r.>X2.3 ~ j l Q x.",
">XW 9 , O / y.iXuX5.* K M k H.",
"[.P u : <.a.-.p.qX=.X k w L d.",
"%X{ T . f.6.3.[ 7 & _ = R | W.",
"<Xw.V   + ] >.,.' 1.g.= V 0. X",
"V.P.&.o 5 =.wXeXi.rX4.; %.R.`.",
"}.+X3XO.% 0XyXu.*.) > +.j.<X).",
"{.+X/.c.:.` $ # + 4 7.K.;X>XK.",
"s.E.5Xb.~.C.|.j.E.L.!.(.].%XF."
};
