/* XPM */
static char *player1703942338[] = {
/* columns rows colors chars-per-pixel */
"15 15 38 1 ",
"  c #D70000",
". c #D70100",
"X c #D70101",
"o c #D80100",
"O c #D80001",
"+ c #DA0001",
"@ c #D90102",
"# c #D80003",
"$ c #D80605",
"% c #D80607",
"& c #D70A07",
"* c #D60808",
"= c #D71617",
"- c #D62626",
"; c #D72727",
": c #D64847",
"> c #D55051",
", c #D45252",
"< c #D55353",
"1 c #D75253",
"2 c #D55554",
"3 c #D65655",
"4 c #D55758",
"5 c #D18F90",
"6 c #D29091",
"7 c #D29696",
"8 c #D29B9E",
"9 c #D39D9D",
"0 c #D0D0CE",
"q c #D1CFD0",
"w c #D0D0D0",
"e c gray82",
"r c #D2D0D1",
"t c #D0D2D1",
"y c #D1D1D3",
"u c #D3D1D2",
"i c #D1D3D2",
"p c #D2D2D2",
/* pixels */
"eeeeeeeeeeeeete",
"eeee5,;%;27eeeq",
"qeq,X++XXX+<eee",
"ee,+XXX+#+XX,ee",
"e9X+XX+X+X+++9y",
"e:XX+X+XX+XX+:e",
"e=+X++XXXX#XX=e",
"e$XXXXX++#X+X%e",
"e=+X++X#XX+X#=y",
"e:+XX+X++X#X+:e",
"e8+X+XXXX++X+9e",
"ee,XXX+XX+#X4ee",
"eeq<+XX++XX<qee",
"eeee5>;&;27eeee",
"eeeeeyeyteeeeee"
};
